<svg width="222" height="169" viewBox="0 0 222 169" fill="none" xmlns="http://www.w3.org/2000/svg">
<path d="M167.197 92.264C172.744 88.184 181.851 91.1987 181.851 101.011C184.519 95.504 196.172 96.8374 195.571 106.064C199.185 103.677 204.172 105.837 204.011 110.944C208.904 108.319 217.891 113.717 215.933 121.691C213.279 120.823 210.144 121.276 207.571 123.396C206.011 117.331 199.612 115.451 194.011 115.837C189.652 116.144 185.959 119.437 184.557 122.891C182.117 121.357 178.904 121.024 175.344 121.836C169.237 123.224 165.677 127.011 164.904 132.276C162.171 127.169 154.677 129.331 153.784 134.063C151.851 127.169 145.011 125.169 140.344 125.677C136.331 126.104 131.184 128.344 129.664 134.224C126.344 131.037 120.971 128.691 115.117 129.169C110.717 129.532 106.637 131.797 104.144 135.144C103.477 129.264 92.0905 127.049 87.8239 132.571C85.7705 130.169 82.3039 128.319 78.5172 127.997C74.7305 127.691 69.6639 128.664 66.7439 132.117C65.9172 126.639 58.3972 123.264 53.1705 125.264C51.5305 119.024 39.1305 114.504 33.3439 124.729C32.6772 118.504 27.7839 116.064 23.3439 116.064C16.6639 116.064 13.1172 121.169 12.9039 124.276C11.3039 123.383 9.5172 123.169 7.81054 123.503C5.65187 115.624 14.9439 109.584 20.2372 113.171C18.9039 105.171 28.6772 101.837 33.1839 107.171C31.3572 100.011 38.8239 94.9573 44.6239 97.092C46.6519 89.6907 59.0505 85.3573 65.3439 93.6107C66.2372 88.2773 71.4372 84.784 77.8505 85.6773C80.8372 86.092 83.1839 87.584 84.6905 89.4507C86.9039 83.4253 96.2652 82.1574 99.3439 87.504C101.277 76.7454 119.637 71.8107 127.011 83.1987C129.464 81.9574 132.531 81.5974 136.011 82.504C141.571 83.9574 144.517 88.664 144.904 92.2773C148.291 82.504 164.144 84.2773 167.184 92.264H167.197Z" fill="#D87639"/>
<path d="M33.344 124.729C39.1307 114.504 51.5307 119.024 53.1707 125.264C58.3974 123.264 65.9174 126.639 66.744 132.117C69.664 128.664 74.7307 127.691 78.5174 127.997C82.304 128.319 85.7707 130.169 87.824 132.571C92.0907 127.049 103.477 129.264 104.144 135.144C106.637 131.797 110.717 129.532 115.117 129.169C120.971 128.691 126.344 131.037 129.664 134.224C131.184 128.344 136.331 126.104 140.344 125.677C145.011 125.169 151.851 127.169 153.784 134.063C154.677 129.331 162.171 127.169 164.904 132.276C165.677 127.011 169.237 123.224 175.344 121.836C178.904 121.024 182.117 121.357 184.557 122.891C185.893 119.6 189.321 116.483 193.415 115.931C190.04 112.664 183.727 113.136 181.851 117.011C181.851 107.199 172.744 104.184 167.197 108.264H167.184C164.144 100.277 148.291 98.504 144.904 108.277C144.517 104.664 141.571 99.9574 136.011 98.504C132.531 97.5974 129.464 97.9574 127.011 99.1987C119.637 87.8107 101.277 92.7454 99.344 103.504C96.2654 98.1574 86.904 99.4254 84.6907 105.451C83.184 103.584 80.8374 102.092 77.8507 101.677C71.4374 100.784 66.2374 104.277 65.344 109.611C59.0507 101.357 46.652 105.691 44.624 113.092C38.824 110.957 31.3574 116.011 33.184 123.169L33.016 123.003C33.16 123.547 33.2774 124.115 33.344 124.729Z" fill="#B74F2F"/>
<path d="M192.232 126.281C192.232 137.508 158.652 146.615 117.231 146.615C75.8107 146.615 42.2307 137.508 42.2307 126.281C42.2307 115.053 75.8107 105.948 117.231 105.948C158.652 105.948 192.232 115.053 192.232 126.281Z" fill="#612D26"/>
<path d="M215.933 121.69C219.412 122.81 222.104 126.169 221.784 130.942C221.292 138.489 216.331 140.745 211.224 140.01C211.224 141.37 210.917 142.822 210.237 144.276C207.877 149.382 199.571 151.396 191.571 147.836C189.6 158.437 175.571 159.024 170.117 155.597C167.371 161.822 158.265 163.609 153.397 159.652C151.304 165.849 140.104 167.092 136.171 160.836C132.517 166.169 126.291 168.836 116.171 167.836C110.599 167.276 107.171 165.425 105.144 163.13C96.4508 171.412 81.7974 165.997 79.5041 158.836C77.1841 161.997 71.8508 163.997 65.3441 162.836C61.7041 162.182 58.0374 159.716 56.3841 156.13C51.0774 162.502 38.1174 159.264 37.1841 151.502C30.9574 153.784 19.5041 153.169 15.8508 147.677C14.5708 145.758 13.8374 143.89 13.5307 142.13C5.47741 142.745 0.304088 139.156 0.0107543 133.169C-0.229246 128.318 3.58409 124.289 7.81075 123.502C9.51742 123.169 11.3041 123.382 12.9041 124.276C13.1174 121.169 16.6641 116.064 23.3441 116.064C27.7841 116.064 32.6774 118.504 33.3441 124.729C39.1308 114.504 51.5308 119.024 53.1708 125.264C58.3974 123.264 65.9174 126.638 66.7441 132.117C69.6641 128.664 74.7308 127.69 78.5174 127.997C82.3041 128.318 85.7707 130.169 87.8241 132.57C92.0907 127.049 103.477 129.264 104.144 135.144C106.637 131.797 110.717 129.532 115.117 129.169C120.971 128.69 126.344 131.037 129.664 134.224C131.184 128.344 136.331 126.104 140.344 125.677C145.011 125.169 151.851 127.169 153.784 134.062C154.677 129.33 162.171 127.169 164.904 132.276C165.677 127.01 169.237 123.224 175.344 121.836C178.904 121.024 182.117 121.357 184.557 122.89C185.959 119.437 189.652 116.144 194.011 115.837C199.612 115.45 206.011 117.33 207.571 123.396C210.144 121.276 213.279 120.822 215.933 121.69Z" fill="#E88D3A"/>
<path d="M216.549 121.948C215.98 128.92 211.319 131.01 206.513 130.322C206.513 131.617 206.221 133.002 205.576 134.388C203.325 139.256 195.409 141.174 187.784 137.781C185.904 147.882 172.535 148.442 167.337 145.177C164.719 151.112 156.043 152.816 151.403 149.04C149.407 154.948 138.735 156.13 134.985 150.169C131.501 155.253 125.568 157.794 115.924 156.841C110.612 156.308 107.345 154.542 105.415 152.357C97.1293 160.248 83.1626 155.089 80.9786 148.266C78.7666 151.276 73.684 153.182 67.484 152.076C64.0133 151.453 60.5186 149.104 58.944 145.685C53.8853 151.758 41.536 148.672 40.6453 141.276C34.7106 143.448 23.7946 142.865 20.3133 137.628C19.0933 135.8 18.3933 134.021 18.1013 132.344C10.6973 132.906 5.8613 129.74 5.2773 124.39C2.18396 125.997 -0.178703 129.321 0.0106299 133.169C0.303963 139.156 5.47728 142.745 13.5306 142.13C13.8373 143.89 14.5706 145.758 15.8506 147.677C19.504 153.169 30.9573 153.784 37.184 151.502C38.1173 159.264 51.0773 162.502 56.384 156.13C58.0373 159.716 61.704 162.182 65.344 162.836C71.8506 163.997 77.184 161.997 79.504 158.836C81.7973 165.997 96.4506 171.412 105.144 163.13C107.171 165.425 110.599 167.276 116.171 167.836C126.291 168.836 132.517 166.169 136.171 160.836C140.104 167.092 151.304 165.849 153.397 159.652C158.265 163.609 167.371 161.822 170.117 155.597C175.571 159.024 189.6 158.437 191.571 147.836C199.571 151.396 207.877 149.382 210.237 144.276C210.917 142.822 211.224 141.37 211.224 140.01C216.331 140.745 221.292 138.489 221.784 130.942C222.087 126.464 219.719 123.253 216.549 121.948Z" fill="#D87639"/>
<path d="M29.804 126.24L29.8279 126.259L29.884 126.297L29.804 126.24Z" fill="#F1AC56"/>
<path d="M30.3281 126.644C30.1614 126.516 29.9934 126.385 29.8281 126.259C29.2894 125.776 28.6481 125.456 27.9734 125.325C28.2228 124.696 28.3534 123.953 28.2721 123.281C28.0708 121.597 27.4574 120.489 26.0734 119.48C24.9908 118.691 23.5028 118.776 22.2668 118.972C21.1841 119.144 20.1494 119.933 19.3761 120.655C17.5534 122.352 16.4801 125.259 17.8348 127.552C18.9228 129.391 21.3028 130.101 23.3428 129.664C23.2881 130.256 23.3534 130.855 23.5921 131.431C23.9387 132.267 24.0654 132.488 24.6441 133.207C25.1881 133.88 26.1921 134.152 27.0108 134.185C27.2761 134.196 27.9321 134.376 27.0961 134.156C28.6201 134.557 30.1614 133.904 30.9841 132.576C31.5441 131.667 31.5281 130.659 31.5641 129.644C31.5907 128.899 31.3947 128.087 30.9921 127.456C30.8241 127.136 30.6027 126.865 30.3281 126.644Z" fill="#F1AC56"/>
<path d="M55.1813 134.445L54.92 134.253C54.568 133.828 54.1373 133.48 53.6399 133.24C53.2146 131.928 52.3426 130.787 51.0599 129.985C50.2439 129.475 49.1306 129.204 48.1146 129.297C48.1386 129.044 48.1573 128.792 48.1413 128.547C48.0399 127.112 47.5346 125.956 46.5813 124.88C45.0079 123.104 41.9453 123.207 40.3546 124.849C39.184 126.057 39.0466 127.683 39.6479 129.008C39.3719 130.177 39.7973 131.459 40.5999 132.344C41.2893 133.107 42.5346 133.459 43.5479 133.391C43.0306 134.601 42.9266 136.016 43.2759 137.232C43.9679 139.631 46.1559 140.609 48.3693 140.488C49.1773 140.62 50.0133 140.631 50.888 140.609L51.0159 140.664H51.0239C52.4173 141.237 53.9706 141.107 55.1813 139.896C56.5453 138.532 56.8226 135.764 55.1813 134.445Z" fill="#F1AC56"/>
<path d="M74.7413 133.07C73.4333 133.37 72.1173 133.989 71.052 134.87C70.728 134.661 70.3759 134.488 69.9799 134.325C71.5559 134.969 70.6053 134.549 70.22 134.357C69.2213 133.857 68.5386 133.709 67.4373 133.592C66.5919 133.502 65.5346 133.816 64.8213 134.258C63.972 134.784 63.0173 135.75 62.8679 136.77C62.7053 137.877 62.7039 138.049 62.8693 139.154C63.0626 140.458 64.4119 141.565 65.6066 141.893C65.9839 141.997 66.3853 142.034 66.788 142.016L66.9346 142.07C67.8026 142.297 68.6013 142.193 69.3933 141.942C69.6639 142.48 69.9973 142.982 70.4119 143.42C70.9146 144.606 71.8973 145.62 73.3626 146.104C75.9879 146.974 79.3253 146.505 81.5226 144.868C84.8373 142.398 86.0466 138.106 83.1053 134.81C81.1479 132.614 77.3959 132.461 74.7413 133.07Z" fill="#F1AC56"/>
<path d="M58.6787 128.581C57.1467 128.581 55.8667 129.86 55.8667 131.393C55.8667 132.928 57.1467 134.207 58.6787 134.207C60.2107 134.207 61.4907 132.928 61.4907 131.393C61.4907 129.86 60.2107 128.581 58.6787 128.581Z" fill="#F1AC56"/>
<path d="M131.567 142.617C130.176 142.617 129.015 143.778 129.015 145.169C129.015 146.562 130.176 147.721 131.567 147.721C132.957 147.721 134.119 146.562 134.119 145.169C134.119 143.778 132.957 142.617 131.567 142.617Z" fill="#F1AC56"/>
<path d="M33.5374 134.647L33.4387 134.719C32.3787 135.013 31.6973 136.428 32.6693 137.401C33.6453 138.377 35.0667 137.688 35.3573 136.625L35.4253 136.535C36.2333 135.44 34.6294 133.833 33.5374 134.647Z" fill="#F1AC56"/>
<path d="M99.464 138.544C98.4347 138.089 97.6547 137.833 96.4987 137.808C95.456 137.784 94.3893 138.211 93.4893 138.677C91.0347 139.948 89.7933 143.333 91.3293 145.743C91.7987 146.477 92.4333 147.055 93.176 147.428C93.7667 148.06 94.528 148.532 95.3693 148.711C96.5947 148.972 97.66 148.761 98.7773 148.209L98.9653 148.087C99.8227 147.417 99.928 147.341 99.2773 147.86C99.6627 147.62 100.019 147.321 100.355 147.013C101.551 145.923 102.161 144.685 102.316 143.06C102.489 141.245 101.068 139.256 99.464 138.544Z" fill="#F1AC56"/>
<path d="M125.972 138.097C124.272 136.339 121.888 135.519 119.511 135.268C116.511 134.959 114.049 135.813 112.268 138.336C112.056 138.639 111.877 138.945 111.719 139.261C110.403 138.661 108.832 138.576 107.403 138.823C107.089 138.877 106.793 138.977 106.512 139.107C104.556 139.795 103.231 141.951 103.468 144.008C103.728 146.264 105.1 148.161 107.413 148.675C109.399 149.115 111.303 148.607 112.855 147.323L112.887 147.289C113.891 148.396 115.245 149.229 116.852 149.587C117.26 149.677 117.664 149.721 118.069 149.748C118.955 149.912 119.861 149.868 120.701 149.612C120.835 149.623 120.964 149.636 121.1 149.644C126.775 149.883 129.768 142.021 125.972 138.097Z" fill="#F1AC56"/>
<path d="M147.533 134.268C147.505 134.057 147.467 133.849 147.4 133.647C147.043 132.563 145.977 131.475 144.724 131.609C143.361 131.756 142.179 132.253 141.444 133.497C141.044 134.175 140.953 134.904 141.052 135.597C138.824 135.727 136.981 137.425 136.911 139.709C136.852 139.899 136.801 140.089 136.765 140.276C136.432 141.964 137.22 144.047 139.116 144.417C140.339 144.656 141.421 144.759 142.648 144.524C144.907 144.095 146.269 142.027 146.356 139.836C146.379 139.253 146.237 138.693 145.995 138.177C147.015 137.571 147.691 136.423 147.625 135.256L147.636 135.175C147.625 134.795 147.504 133.953 147.533 134.268Z" fill="#F1AC56"/>
<path d="M189.011 128.185C188.142 128.185 187.336 128.488 186.675 128.975L186.573 128.719C186.445 128.445 186.139 127.589 186.527 128.764C186.339 128.193 186.058 127.547 185.714 127.032C184.107 124.628 181.6 123.633 178.768 124.06C180.416 123.813 178.534 124.024 177.983 124.209C177.146 124.488 176.389 124.88 175.759 125.511C174.552 126.716 174.012 128.595 174.46 130.251L174.401 130.597C173.759 130.563 173.067 130.633 172.587 130.808C171.431 131.227 170.703 131.841 169.975 132.713C169.56 132.581 169.131 132.488 168.678 132.488C166.571 132.488 164.783 134.052 164.41 136.063C163.991 135.68 163.524 135.349 163.082 135.112C161.679 134.357 160.128 134.123 158.579 134.516C156.89 134.945 155.479 136.675 155.546 138.451L155.492 138.519C154.905 139.347 154.944 140.508 155.15 141.44C155.376 142.48 156.263 143.393 157.139 143.945C158.155 144.587 159.491 144.833 160.676 144.713C162.044 144.579 163.687 144.229 164.647 143.139C165.238 142.464 165.716 141.792 165.929 140.901C165.984 140.672 166.002 140.456 166.022 140.237C166.763 140.821 167.679 141.185 168.678 141.185C169.358 141.185 169.995 141.008 170.573 140.721C170.804 140.888 171.048 141.032 171.307 141.152C171.72 141.836 172.508 142.555 173.324 142.688C174.499 142.88 175.461 143.092 176.663 142.849C178.432 142.497 179.548 140.784 180.128 139.216C180.349 138.617 180.422 138.024 180.386 137.448C181.22 137.445 182.044 137.341 182.742 137.185C184.027 136.896 185.274 136.005 186.12 134.876C186.852 135.656 187.878 136.155 189.011 136.155C191.183 136.155 192.995 134.341 192.995 132.169C192.995 129.997 191.183 128.185 189.011 128.185Z" fill="#F1AC56"/>
<path d="M202.825 121.713C202.1 120.388 200.945 119.652 199.581 119.115C198.475 118.679 196.972 118.532 195.849 118.959C194.008 119.659 192.641 121.087 192.641 123.169C192.641 124.011 192.871 124.737 193.256 125.357C193.341 126.341 193.68 126.975 194.281 127.751C194.675 128.259 195.311 128.628 195.896 128.891C197.125 129.448 198.516 129.992 199.873 129.475C201.532 128.841 202.547 127.768 203.156 126.117C203.693 124.664 203.571 123.068 202.825 121.713Z" fill="#F1AC56"/>
<path d="M110.905 140.175C122.831 140.175 160.684 138.243 169.499 132.928C167.943 96.6919 164.356 58.0852 158.609 41.8559C150.887 20.0452 132.92 5.86386 110.905 5.86386C88.8907 5.86386 70.924 20.0452 63.2013 41.8559C57.4547 58.0852 53.868 96.6919 52.312 132.928C61.1267 138.243 98.98 140.175 110.905 140.175Z" fill="#F04121"/>
<path d="M110.905 117.563C87.4813 117.563 66.9333 105.892 55.3107 88.3426C53.9547 102.433 52.9573 117.883 52.312 132.928C61.1267 138.243 98.98 140.175 110.905 140.175C122.831 140.175 160.684 138.243 169.499 132.928C168.853 117.883 167.856 102.433 166.5 88.3426C154.877 105.892 134.329 117.563 110.905 117.563Z" fill="#EF3422"/>
<path d="M59.6453 134.201C61.112 100.03 64.496 63.6185 69.9147 48.3118C77.1987 27.7425 94.144 14.3664 114.905 14.3664C135.668 14.3664 152.612 27.7425 159.896 48.3118C160.889 51.1185 160.111 46.0944 158.609 41.8558C150.887 20.0451 132.92 5.86376 110.905 5.86376C88.8907 5.86376 70.924 20.0451 63.2013 41.8558C57.4547 58.0851 53.868 96.6918 52.312 132.928C55.404 134.792 61.6827 135.43 59.6453 134.201Z" fill="#F36639"/>
<path d="M54.36 131.871C64.032 136.385 98.28 138.311 110.905 138.311C123.531 138.311 157.779 136.385 167.451 131.871C165.591 89.5907 161.585 56.208 156.711 42.4387C149.129 21.0293 131.577 7.72669 110.905 7.72669C90.2333 7.72669 72.6813 21.0293 65.1 42.4387C60.2253 56.208 56.22 89.5907 54.36 131.871ZM110.905 142.037C103.576 142.037 61.4333 140.647 51.2253 134.492C50.632 134.133 50.2853 133.511 50.3133 132.852C51.2027 112.136 54.0533 61.7427 61.3013 41.272C69.4413 18.2827 88.448 3.99999 110.905 3.99999C133.363 3.99999 152.369 18.2827 160.509 41.272C167.757 61.7427 170.608 112.136 171.497 132.852C171.525 133.511 171.179 134.133 170.585 134.492C160.377 140.647 118.235 142.037 110.905 142.037Z" fill="#BF1E24"/>
<path d="M95.132 64.6999C93.0427 56.3333 88.104 46.2546 82.5494 39.0199C81.4774 37.6239 79.3974 37.2986 77.9014 38.3013C76.4027 39.2973 76.0573 41.2373 77.128 42.632C81.5893 48.444 85.088 55.5386 87.1707 61.348C81.3654 60.336 74.7974 59.4826 67.6454 59.3773C65.804 59.3479 64.288 60.7173 64.26 62.432C64.2347 63.8186 65.1867 65.0039 66.5227 65.4253C66.8427 65.5253 67.184 65.5826 67.5387 65.5879C76.4387 65.7199 84.488 67.1039 91.1867 68.4413C92.3027 68.6626 93.4627 68.3399 94.2627 67.5799C95.0613 66.8226 95.3894 65.7346 95.132 64.6999Z" fill="#BF1E24"/>
<path d="M126.679 64.6999C128.768 56.3333 133.707 46.2546 139.261 39.0199C140.333 37.6239 142.413 37.2986 143.909 38.3013C145.408 39.2973 145.753 41.2373 144.683 42.632C140.221 48.444 136.723 55.5386 134.64 61.348C140.445 60.336 147.013 59.4826 154.165 59.3773C156.007 59.3479 157.523 60.7173 157.551 62.432C157.576 63.8186 156.624 65.0039 155.288 65.4253C154.968 65.5253 154.627 65.5826 154.272 65.5879C145.372 65.7199 137.323 67.1039 130.624 68.4413C129.508 68.6626 128.348 68.3399 127.548 67.5799C126.749 66.8226 126.421 65.7346 126.679 64.6999Z" fill="#BF1E24"/>
<path d="M110.911 97.5387C122.123 97.5387 131.123 100.943 137.283 108.557C129.949 107.316 116.949 107.004 110.911 107.004C104.857 107.004 91.8573 107.316 84.5239 108.557C90.6973 100.943 99.6973 97.5387 110.911 97.5387Z" fill="#ED1F23"/>
<path d="M128.283 78.432C131.403 85.6734 134.949 97.9973 137.283 108.557C131.123 100.943 122.123 97.5387 110.911 97.5387C99.6973 97.5387 90.6973 100.943 84.5239 108.557C86.8573 97.9973 90.4173 85.6734 93.5239 78.432L93.6973 78.3067C96.8959 82.196 103.403 84.8533 110.911 84.8533C118.403 84.8533 124.911 82.196 128.123 78.32L128.283 78.432Z" fill="#ED1E24"/>
<path d="M87.3387 106.904C92.9987 101.307 100.907 98.4638 110.905 98.4638C120.904 98.4638 128.812 101.307 134.472 106.904C127.017 106.016 116.524 105.761 110.905 105.761C105.287 105.761 94.7933 106.016 87.3387 106.904ZM94.0773 80.5652C97.9147 84.0105 104.14 86.0932 110.905 86.0932C117.669 86.0932 123.896 84.0105 127.733 80.5652C130.115 86.5612 132.872 95.6972 135.055 104.801C129.088 99.3625 120.992 96.5998 110.905 96.5998C100.819 96.5998 92.7226 99.3625 86.756 104.801C88.9386 95.6972 91.696 86.5612 94.0773 80.5652ZM138.592 108.308C136.043 96.7692 132.483 84.8626 129.524 77.9706C129.42 77.7279 129.231 77.5532 129.015 77.4185L128.933 77.3305C128.345 76.9105 127.509 77.0118 127.063 77.5558C123.98 81.2878 117.788 83.6079 110.905 83.6079C104.017 83.6079 97.824 81.2878 94.744 77.5505C94.296 77.0078 93.46 76.9052 92.8747 77.3225L92.768 77.4359C92.5653 77.5692 92.3853 77.7386 92.2867 77.9706C89.328 84.8626 85.768 96.7692 83.2187 108.308C83.1293 108.711 83.2627 109.129 83.572 109.427C83.88 109.721 84.3253 109.857 84.764 109.779C91.9067 108.569 104.556 108.248 110.905 108.248C117.255 108.248 129.904 108.569 137.047 109.779L137.285 109.8C137.641 109.8 137.987 109.667 138.239 109.427C138.548 109.129 138.681 108.711 138.592 108.308Z" fill="#BF1E24"/>
<path d="M119.336 83.66L119.349 83.7106C119.349 87.66 115.576 94.344 110.909 94.344C106.242 94.344 102.456 87.66 102.456 83.7106L102.483 83.66C105.029 84.4186 107.896 84.8533 110.909 84.8533C113.936 84.8533 116.789 84.4186 119.336 83.66Z" fill="#FCD5DD"/>
<path d="M110.909 60.8266C121.576 60.8266 130.243 66.208 130.243 72.84C130.243 77.5986 125.789 81.7106 119.336 83.6599C116.789 84.4186 113.936 84.8532 110.909 84.8532C107.896 84.8532 105.029 84.4186 102.483 83.6599V83.6506C96.0293 81.7106 91.5759 77.5986 91.5759 72.84C91.5759 66.208 100.229 60.8266 110.909 60.8266Z" fill="#FBCA98"/>
<path d="M119.683 68.4613C119.683 71.3773 115.753 75.1186 110.905 75.1186C106.057 75.1186 102.128 71.3773 102.128 68.4613C102.128 65.5453 106.057 64.5586 110.905 64.5586C115.753 64.5586 119.683 65.5453 119.683 68.4613Z" fill="#BF1E24"/>
<path d="M110.655 67.5454C110.776 68.3094 109.671 69.0961 108.185 69.3041C106.699 69.5134 105.392 69.0641 105.268 68.3014C105.147 67.5387 106.251 66.7494 107.737 66.5427C109.223 66.3321 110.531 66.7814 110.655 67.5454Z" fill="#FDE2E8"/>
<path d="M110.905 83.6079C100.98 83.6079 92.9052 78.7772 92.9052 72.8399C92.9052 66.9026 100.98 62.0719 110.905 62.0719C120.831 62.0719 128.905 66.9026 128.905 72.8399C128.905 78.7772 120.831 83.6079 110.905 83.6079ZM111.905 92.9492V86.0585C113.969 85.9958 115.952 85.7412 117.816 85.3146C117.123 88.4052 114.669 92.1745 111.905 92.9492ZM103.995 85.3146C105.859 85.7412 107.841 85.9958 109.905 86.0585V92.9492C107.141 92.1745 104.688 88.4052 103.995 85.3146ZM131.572 72.8399C131.572 65.5332 122.301 59.5892 110.905 59.5892C99.5092 59.5892 90.2385 65.5332 90.2385 72.8399C90.2385 77.8919 94.6719 82.2905 101.175 84.5252C101.635 88.8092 105.516 95.5905 110.905 95.5905C116.295 95.5905 120.176 88.8092 120.636 84.5252C127.139 82.2905 131.572 77.8919 131.572 72.8399Z" fill="#BF1E24"/>
<path d="M98 73.9985H87.4787C87.1093 73.9985 86.812 73.7198 86.812 73.3772C86.812 73.0332 87.1093 72.7558 87.4787 72.7558H98C98.3693 72.7558 98.6667 73.0332 98.6667 73.3772C98.6667 73.7198 98.3693 73.9985 98 73.9985Z" fill="#BF1E24"/>
<path d="M88.1132 81.4931C87.8746 81.4931 87.6426 81.3731 87.5239 81.1598C87.3519 80.8585 87.4786 80.4838 87.8039 80.3224L97.6906 75.4838C98.0146 75.3238 98.4199 75.4398 98.5906 75.7438C98.7626 76.0451 98.6359 76.4238 98.3106 76.5825L88.4239 81.4238L88.1132 81.4931Z" fill="#BF1E24"/>
<path d="M97.9999 71.6386L97.6906 71.5666L87.8039 66.7253C87.4786 66.5666 87.3519 66.192 87.5239 65.8866C87.6946 65.5853 88.0999 65.4693 88.4239 65.6267L98.3106 70.468C98.6359 70.6267 98.7626 71.0013 98.5906 71.3067C98.4719 71.5173 98.2399 71.6386 97.9999 71.6386Z" fill="#BF1E24"/>
<path d="M134.332 73.9985H123.811C123.441 73.9985 123.144 73.7198 123.144 73.3772C123.144 73.0332 123.441 72.7558 123.811 72.7558H134.332C134.701 72.7558 134.999 73.0332 134.999 73.3772C134.999 73.7198 134.701 73.9985 134.332 73.9985Z" fill="#BF1E24"/>
<path d="M133.697 81.4931L133.387 81.4238L123.5 76.5825C123.175 76.4238 123.048 76.0451 123.22 75.7438C123.392 75.4398 123.796 75.3238 124.12 75.4838L134.007 80.3224C134.332 80.4838 134.459 80.8585 134.287 81.1598C134.168 81.3731 133.936 81.4931 133.697 81.4931Z" fill="#BF1E24"/>
<path d="M123.811 71.6386C123.571 71.6386 123.339 71.5173 123.22 71.3067C123.048 71.0013 123.175 70.6267 123.5 70.468L133.387 65.6267C133.711 65.4693 134.116 65.5853 134.287 65.8866C134.459 66.192 134.332 66.5666 134.007 66.7253L124.12 71.5666L123.811 71.6386Z" fill="#BF1E24"/>
<path d="M180.581 46C178.303 46 175.103 44.5706 174.861 43.9866C175.091 43.5093 178.345 41.9773 180.583 41.952C182.555 41.952 183.367 43.2493 183.375 43.9427C183.381 44.6493 182.585 45.9773 180.631 46H180.581Z" fill="#61BAEB"/>
<path d="M176.761 57.9214C176.245 57.9214 175.465 57.7573 174.669 56.98C173.117 55.4613 171.849 52.2587 171.996 51.536L172.148 51.5333C173.32 51.5333 176.179 52.7934 177.496 54.0827C178.305 54.872 178.483 55.6573 178.489 56.18C178.496 56.7987 178.273 57.2493 178.063 57.464C177.857 57.6747 177.392 57.9214 176.761 57.9214Z" fill="#61BAEB"/>
<path d="M41.2294 46C43.5081 46 46.7081 44.5706 46.9494 43.9866C46.7201 43.5093 43.4654 41.9773 41.2281 41.952C39.2561 41.952 38.4441 43.2493 38.4361 43.9427C38.4294 44.6493 39.2254 45.9773 41.1801 46H41.2294Z" fill="#61BAEB"/>
<path d="M45.0494 57.9214C45.5654 57.9214 46.3454 57.7573 47.1414 56.98C48.6934 55.4613 49.9614 52.2587 49.8147 51.536L49.6627 51.5333C48.4907 51.5333 45.6321 52.7934 44.3147 54.0827C43.5054 54.872 43.3281 55.6573 43.3227 56.18C43.3147 56.7987 43.5374 57.2493 43.7481 57.464C43.9534 57.6747 44.4187 57.9214 45.0494 57.9214Z" fill="#61BAEB"/>
<path d="M215.933 121.69C219.412 122.81 222.104 126.169 221.784 130.942C221.292 138.489 216.331 140.745 211.224 140.01C211.224 141.37 210.917 142.822 210.237 144.276C207.877 149.382 199.571 151.396 191.571 147.836C189.6 158.437 175.571 159.024 170.117 155.597C167.371 161.822 158.265 163.609 153.397 159.652C151.304 165.849 140.104 167.092 136.171 160.836C132.517 166.169 126.291 168.836 116.171 167.836C110.599 167.276 107.171 165.425 105.144 163.13C96.4508 171.412 81.7974 165.997 79.5041 158.836C77.1841 161.997 71.8508 163.997 65.3441 162.836C61.7041 162.182 58.0374 159.716 56.3841 156.13C51.0774 162.502 38.1174 159.264 37.1841 151.502C30.9574 153.784 19.5041 153.169 15.8508 147.677C14.5708 145.758 13.8374 143.89 13.5307 142.13C5.47741 142.745 0.304088 139.156 0.0107543 133.169C-0.229246 128.318 3.58409 124.289 7.81075 123.502C9.51742 123.169 11.3041 123.382 12.9041 124.276C13.1174 121.169 16.6641 116.064 23.3441 116.064C27.7841 116.064 32.6774 118.504 33.3441 124.729C39.1308 114.504 51.5308 119.024 53.1708 125.264C58.3974 123.264 65.9174 126.638 66.7441 132.117C69.6641 128.664 74.7308 127.69 78.5174 127.997C82.3041 128.318 85.7707 130.169 87.8241 132.57C92.0907 127.049 103.477 129.264 104.144 135.144C106.637 131.797 110.717 129.532 115.117 129.169C120.971 128.69 126.344 131.037 129.664 134.224C131.184 128.344 136.331 126.104 140.344 125.677C145.011 125.169 151.851 127.169 153.784 134.062C154.677 129.33 162.171 127.169 164.904 132.276C165.677 127.01 169.237 123.224 175.344 121.836C178.904 121.024 182.117 121.357 184.557 122.89C185.959 119.437 189.652 116.144 194.011 115.837C199.612 115.45 206.011 117.33 207.571 123.396C210.144 121.276 213.279 120.822 215.933 121.69Z" fill="#E88D3A"/>
<path d="M216.549 121.948C215.98 128.92 211.319 131.01 206.513 130.322C206.513 131.617 206.221 133.002 205.576 134.388C203.325 139.256 195.409 141.174 187.784 137.781C185.904 147.882 172.535 148.442 167.337 145.177C164.719 151.112 156.043 152.816 151.403 149.04C149.407 154.948 138.735 156.13 134.985 150.169C131.501 155.253 125.568 157.794 115.924 156.841C110.612 156.308 107.345 154.542 105.415 152.357C97.1293 160.248 83.1626 155.089 80.9786 148.266C78.7666 151.276 73.684 153.182 67.484 152.076C64.0133 151.453 60.5186 149.104 58.944 145.685C53.8853 151.758 41.536 148.672 40.6453 141.276C34.7106 143.448 23.7946 142.865 20.3133 137.628C19.0933 135.8 18.3933 134.021 18.1013 132.344C10.6973 132.906 5.8613 129.74 5.2773 124.39C2.18396 125.997 -0.178703 129.321 0.0106299 133.169C0.303963 139.156 5.47728 142.745 13.5306 142.13C13.8373 143.89 14.5706 145.758 15.8506 147.677C19.504 153.169 30.9573 153.784 37.184 151.502C38.1173 159.264 51.0773 162.502 56.384 156.13C58.0373 159.716 61.704 162.182 65.344 162.836C71.8506 163.997 77.184 161.997 79.504 158.836C81.7973 165.997 96.4506 171.412 105.144 163.13C107.171 165.425 110.599 167.276 116.171 167.836C126.291 168.836 132.517 166.169 136.171 160.836C140.104 167.092 151.304 165.849 153.397 159.652C158.265 163.609 167.371 161.822 170.117 155.597C175.571 159.024 189.6 158.437 191.571 147.836C199.571 151.396 207.877 149.382 210.237 144.276C210.917 142.822 211.224 141.37 211.224 140.01C216.331 140.745 221.292 138.489 221.784 130.942C222.087 126.464 219.719 123.253 216.549 121.948Z" fill="#D87639"/>
<path d="M29.804 126.24L29.8279 126.259L29.884 126.297L29.804 126.24Z" fill="#F1AC56"/>
<path d="M30.3281 126.644C30.1614 126.516 29.9934 126.385 29.8281 126.259C29.2894 125.776 28.6481 125.456 27.9734 125.325C28.2228 124.696 28.3534 123.953 28.2721 123.281C28.0708 121.597 27.4574 120.489 26.0734 119.48C24.9908 118.691 23.5028 118.776 22.2668 118.972C21.1841 119.144 20.1494 119.933 19.3761 120.655C17.5534 122.352 16.4801 125.259 17.8348 127.552C18.9228 129.391 21.3028 130.101 23.3428 129.664C23.2881 130.256 23.3534 130.855 23.5921 131.431C23.9387 132.267 24.0654 132.488 24.6441 133.207C25.1881 133.88 26.1921 134.152 27.0108 134.185C27.2761 134.196 27.9321 134.376 27.0961 134.156C28.6201 134.557 30.1614 133.904 30.9841 132.576C31.5441 131.667 31.5281 130.659 31.5641 129.644C31.5907 128.899 31.3947 128.087 30.9921 127.456C30.8241 127.136 30.6027 126.865 30.3281 126.644Z" fill="#F1AC56"/>
<path d="M55.1813 134.445L54.92 134.253C54.568 133.828 54.1373 133.48 53.6399 133.24C53.2146 131.928 52.3426 130.787 51.0599 129.985C50.2439 129.475 49.1306 129.204 48.1146 129.297C48.1386 129.044 48.1573 128.792 48.1413 128.547C48.0399 127.112 47.5346 125.956 46.5813 124.88C45.0079 123.104 41.9453 123.207 40.3546 124.849C39.184 126.057 39.0466 127.683 39.6479 129.008C39.3719 130.177 39.7973 131.459 40.5999 132.344C41.2893 133.107 42.5346 133.459 43.5479 133.391C43.0306 134.601 42.9266 136.016 43.2759 137.232C43.9679 139.631 46.1559 140.609 48.3693 140.488C49.1773 140.62 50.0133 140.631 50.888 140.609L51.0159 140.664H51.0239C52.4173 141.237 53.9706 141.107 55.1813 139.896C56.5453 138.532 56.8226 135.764 55.1813 134.445Z" fill="#F1AC56"/>
<path d="M74.7413 133.07C73.4333 133.37 72.1173 133.989 71.052 134.87C70.728 134.661 70.3759 134.488 69.9799 134.325C71.5559 134.969 70.6053 134.549 70.22 134.357C69.2213 133.857 68.5386 133.709 67.4373 133.592C66.5919 133.502 65.5346 133.816 64.8213 134.258C63.972 134.784 63.0173 135.75 62.8679 136.77C62.7053 137.877 62.7039 138.049 62.8693 139.154C63.0626 140.458 64.4119 141.565 65.6066 141.893C65.9839 141.997 66.3853 142.034 66.788 142.016L66.9346 142.07C67.8026 142.297 68.6013 142.193 69.3933 141.942C69.6639 142.48 69.9973 142.982 70.4119 143.42C70.9146 144.606 71.8973 145.62 73.3626 146.104C75.9879 146.974 79.3253 146.505 81.5226 144.868C84.8373 142.398 86.0466 138.106 83.1053 134.81C81.1479 132.614 77.3959 132.461 74.7413 133.07Z" fill="#F1AC56"/>
<path d="M58.6787 128.581C57.1467 128.581 55.8667 129.86 55.8667 131.393C55.8667 132.928 57.1467 134.207 58.6787 134.207C60.2107 134.207 61.4907 132.928 61.4907 131.393C61.4907 129.86 60.2107 128.581 58.6787 128.581Z" fill="#F1AC56"/>
<path d="M131.567 142.617C130.176 142.617 129.015 143.778 129.015 145.169C129.015 146.562 130.176 147.721 131.567 147.721C132.957 147.721 134.119 146.562 134.119 145.169C134.119 143.778 132.957 142.617 131.567 142.617Z" fill="#F1AC56"/>
<path d="M33.5374 134.647L33.4387 134.719C32.3787 135.013 31.6973 136.428 32.6693 137.401C33.6453 138.377 35.0667 137.688 35.3573 136.625L35.4253 136.535C36.2333 135.44 34.6294 133.833 33.5374 134.647Z" fill="#F1AC56"/>
<path d="M99.464 138.544C98.4347 138.089 97.6547 137.833 96.4987 137.808C95.456 137.784 94.3893 138.211 93.4893 138.677C91.0347 139.948 89.7933 143.333 91.3293 145.743C91.7987 146.477 92.4333 147.055 93.176 147.428C93.7667 148.06 94.528 148.532 95.3693 148.711C96.5947 148.972 97.66 148.761 98.7773 148.209L98.9653 148.087C99.8227 147.417 99.928 147.341 99.2773 147.86C99.6627 147.62 100.019 147.321 100.355 147.013C101.551 145.923 102.161 144.685 102.316 143.06C102.489 141.245 101.068 139.256 99.464 138.544Z" fill="#F1AC56"/>
<path d="M125.972 138.097C124.272 136.339 121.888 135.519 119.511 135.268C116.511 134.959 114.049 135.813 112.268 138.336C112.056 138.639 111.877 138.945 111.719 139.261C110.403 138.661 108.832 138.576 107.403 138.823C107.089 138.877 106.793 138.977 106.512 139.107C104.556 139.795 103.231 141.951 103.468 144.008C103.728 146.264 105.1 148.161 107.413 148.675C109.399 149.115 111.303 148.607 112.855 147.323L112.887 147.289C113.891 148.396 115.245 149.229 116.852 149.587C117.26 149.677 117.664 149.721 118.069 149.748C118.955 149.912 119.861 149.868 120.701 149.612C120.835 149.623 120.964 149.636 121.1 149.644C126.775 149.883 129.768 142.021 125.972 138.097Z" fill="#F1AC56"/>
<path d="M147.533 134.268C147.505 134.057 147.467 133.849 147.4 133.647C147.043 132.563 145.977 131.475 144.724 131.609C143.361 131.756 142.179 132.253 141.444 133.497C141.044 134.175 140.953 134.904 141.052 135.597C138.824 135.727 136.981 137.425 136.911 139.709C136.852 139.899 136.801 140.089 136.765 140.276C136.432 141.964 137.22 144.047 139.116 144.417C140.339 144.656 141.421 144.759 142.648 144.524C144.907 144.095 146.269 142.027 146.356 139.836C146.379 139.253 146.237 138.693 145.995 138.177C147.015 137.571 147.691 136.423 147.625 135.256L147.636 135.175C147.625 134.795 147.504 133.953 147.533 134.268Z" fill="#F1AC56"/>
<path d="M189.011 128.185C188.142 128.185 187.336 128.488 186.675 128.975L186.573 128.719C186.445 128.445 186.139 127.589 186.527 128.764C186.339 128.193 186.058 127.547 185.714 127.032C184.107 124.628 181.6 123.633 178.768 124.06C180.416 123.813 178.534 124.024 177.983 124.209C177.146 124.488 176.389 124.88 175.759 125.511C174.552 126.716 174.012 128.595 174.46 130.251L174.401 130.597C173.759 130.563 173.067 130.633 172.587 130.808C171.431 131.227 170.703 131.841 169.975 132.713C169.56 132.581 169.131 132.488 168.678 132.488C166.571 132.488 164.783 134.052 164.41 136.063C163.991 135.68 163.524 135.349 163.082 135.112C161.679 134.357 160.128 134.123 158.579 134.516C156.89 134.945 155.479 136.675 155.546 138.451L155.492 138.519C154.905 139.347 154.944 140.508 155.15 141.44C155.376 142.48 156.263 143.393 157.139 143.945C158.155 144.587 159.491 144.833 160.676 144.713C162.044 144.579 163.687 144.229 164.647 143.139C165.238 142.464 165.716 141.792 165.929 140.901C165.984 140.672 166.002 140.456 166.022 140.237C166.763 140.821 167.679 141.185 168.678 141.185C169.358 141.185 169.995 141.008 170.573 140.721C170.804 140.888 171.048 141.032 171.307 141.152C171.72 141.836 172.508 142.555 173.324 142.688C174.499 142.88 175.461 143.092 176.663 142.849C178.432 142.497 179.548 140.784 180.128 139.216C180.349 138.617 180.422 138.024 180.386 137.448C181.22 137.445 182.044 137.341 182.742 137.185C184.027 136.896 185.274 136.005 186.12 134.876C186.852 135.656 187.878 136.155 189.011 136.155C191.183 136.155 192.995 134.341 192.995 132.169C192.995 129.997 191.183 128.185 189.011 128.185Z" fill="#F1AC56"/>
<path d="M202.825 121.713C202.1 120.388 200.945 119.652 199.581 119.115C198.475 118.679 196.972 118.532 195.849 118.959C194.008 119.659 192.641 121.087 192.641 123.169C192.641 124.011 192.871 124.737 193.256 125.357C193.341 126.341 193.68 126.975 194.281 127.751C194.675 128.259 195.311 128.628 195.896 128.891C197.125 129.448 198.516 129.992 199.873 129.475C201.532 128.841 202.547 127.768 203.156 126.117C203.693 124.664 203.571 123.068 202.825 121.713Z" fill="#F1AC56"/>
<path d="M41.1306 116.373L41.0346 116.565C35.3679 113.781 30.4919 110.361 26.9373 106.933C34.4613 103.885 45.7426 103.609 48.7839 104.045L49.8026 104.521C48.0239 108.399 45.2186 112.4 41.1306 116.373Z" fill="#FBCA98"/>
<path d="M49.8026 104.521L48.784 104.045C38.0893 101.451 32.032 97.8959 25.9773 93.0079C32.188 90.6679 41.9013 89.1065 51.204 91.2905L52.3546 91.1665C52.6693 95.2892 51.992 99.8172 49.8026 104.521Z" fill="#FBCA98"/>
<path d="M47.8706 78.7865C50.2212 82.0985 51.9639 86.3505 52.3546 91.1665L51.2039 91.2905C41.0426 87.7852 34.1439 83.7958 28.1746 81.0305C34.1092 78.3131 40.4199 77.0398 47.8706 78.7865Z" fill="#FBCA98"/>
<path d="M76.12 109.932C74.7974 117.365 66.6773 124.727 52.472 120.899C48.4427 119.821 44.584 118.311 41.0347 116.565L41.1307 116.373C45.2187 112.4 48.024 108.399 49.8027 104.521C51.992 99.8172 52.6694 95.2892 52.3547 91.1666C51.964 86.3506 50.2213 82.0985 47.8707 78.7865C51.576 79.6545 55.5427 81.2679 59.888 83.8225C69.9747 89.7692 77.6174 101.527 76.12 109.932Z" fill="#F04121"/>
<path d="M68.6119 117.615C65.8052 119.396 60.8186 121.076 52.9999 118.969C49.8599 118.123 46.7319 116.983 43.7266 115.623C55.2999 103.273 55.3772 90.6852 51.2186 81.8986C53.6066 82.7612 56.1519 83.9505 58.8732 85.5532C61.9559 87.3705 64.9066 89.8385 67.4066 92.6905C72.4066 98.3972 74.9892 104.873 74.1492 109.589C73.5732 112.821 71.5546 115.747 68.6119 117.615ZM47.5866 105.94C46.0399 108.727 43.9279 111.563 41.1666 114.403C37.3799 112.48 33.8546 110.211 30.8466 107.729C37.0946 105.995 44.5292 105.753 47.5866 105.94ZM30.2346 93.7572C35.9066 92.2505 43.4639 91.5239 50.7506 93.2372C50.8799 93.2679 51.0079 93.2478 51.1332 93.2532C51.1146 96.0812 50.5759 99.0705 49.3852 102.152L49.2639 102.1C40.5439 99.9852 35.1306 97.2785 30.2346 93.7572ZM34.1119 81.6906C33.7999 81.5346 33.4879 81.3785 33.1799 81.2279C37.1146 79.9932 41.8492 79.4199 47.6066 80.8066C49.1066 83.2132 50.2186 85.9839 50.7666 89.0052C43.9946 86.5932 38.7506 83.9946 34.1119 81.6906ZM70.4146 90.0532C67.6386 86.8852 64.3492 84.1385 60.9039 82.1079C48.8359 74.9945 38.4879 74.1025 27.3492 79.2132C26.6412 79.5385 26.1852 80.2479 26.1826 81.0292C26.1826 81.8092 26.6386 82.5199 27.3439 82.8465C28.9252 83.5772 30.5732 84.3972 32.3306 85.2719C34.3212 86.2599 36.4119 87.2999 38.6879 88.3599C33.4999 88.6986 28.7812 89.8185 25.2732 91.1412C24.5999 91.3932 24.1172 91.9879 24.0026 92.6959C23.8906 93.4039 24.1546 94.1172 24.7212 94.5679C28.4772 97.5999 32.3359 100.216 37.4039 102.417C33.6119 102.887 29.5626 103.716 26.1986 105.079C25.5706 105.332 25.1119 105.888 24.9852 106.551C24.8652 107.163 25.0372 107.788 25.4426 108.252L25.5572 108.373C32.1586 114.751 42.0292 120.155 51.9612 122.831C61.1799 125.316 67.2706 123.201 70.7559 120.989C74.6412 118.524 77.3159 114.625 78.0892 110.291C79.1546 104.32 76.2839 96.7545 70.4146 90.0532Z" fill="#BF1E24"/>
<path d="M180.68 116.373L180.776 116.565C186.443 113.781 191.319 110.361 194.873 106.933C187.349 103.885 176.068 103.609 173.027 104.045L172.008 104.521C173.787 108.399 176.592 112.4 180.68 116.373Z" fill="#FBCA98"/>
<path d="M172.008 104.521L173.027 104.045C183.721 101.451 189.779 97.8959 195.833 93.0079C189.623 90.6679 179.909 89.1065 170.607 91.2905L169.456 91.1665C169.141 95.2892 169.819 99.8172 172.008 104.521Z" fill="#FBCA98"/>
<path d="M173.94 78.7865C171.589 82.0985 169.846 86.3505 169.456 91.1665L170.606 91.2905C180.768 87.7852 187.666 83.7958 193.636 81.0305C187.701 78.3131 181.39 77.0398 173.94 78.7865Z" fill="#FBCA98"/>
<path d="M145.691 109.932C147.013 117.365 155.133 124.727 169.339 120.899C173.368 119.821 177.227 118.311 180.776 116.565L180.68 116.373C176.592 112.4 173.787 108.399 172.008 104.521C169.819 99.8172 169.141 95.2892 169.456 91.1666C169.847 86.3506 171.589 82.0985 173.94 78.7865C170.235 79.6545 166.268 81.2679 161.923 83.8225C151.836 89.7692 144.193 101.527 145.691 109.932Z" fill="#F04121"/>
<path d="M147.661 109.589C146.821 104.873 149.404 98.3972 154.404 92.6905C156.904 89.8385 159.855 87.3705 162.937 85.5532C165.659 83.9505 168.204 82.7612 170.592 81.8986C166.433 90.6852 166.511 103.273 178.084 115.623C175.079 116.983 171.951 118.123 168.811 118.969C160.992 121.076 156.005 119.396 153.199 117.615C150.256 115.747 148.237 112.821 147.661 109.589ZM190.964 107.729C187.956 110.211 184.431 112.48 180.644 114.403C177.883 111.563 175.771 108.727 174.224 105.94C177.281 105.753 184.716 105.995 190.964 107.729ZM172.547 102.1L172.425 102.152C171.235 99.0705 170.696 96.0812 170.677 93.2532C170.803 93.2478 170.931 93.2679 171.06 93.2372C178.347 91.5239 185.904 92.2505 191.576 93.7572C186.68 97.2785 181.267 99.9852 172.547 102.1ZM171.044 89.0052C171.592 85.9839 172.704 83.2132 174.204 80.8066C179.961 79.4199 184.696 79.9932 188.631 81.2279C188.323 81.3785 188.011 81.5346 187.699 81.6906C183.06 83.9946 177.816 86.5932 171.044 89.0052ZM143.721 110.291C144.495 114.625 147.169 118.524 151.055 120.989C154.54 123.201 160.631 125.316 169.849 122.831C179.781 120.155 189.652 114.751 196.253 108.373L196.368 108.252C196.773 107.788 196.945 107.163 196.825 106.551C196.699 105.888 196.24 105.332 195.612 105.079C192.248 103.716 188.199 102.887 184.407 102.417C189.475 100.216 193.333 97.5999 197.089 94.5679C197.656 94.1172 197.92 93.4039 197.808 92.6959C197.693 91.9879 197.211 91.3932 196.537 91.1412C193.029 89.8185 188.311 88.6986 183.123 88.3599C185.399 87.2999 187.489 86.2599 189.48 85.2719C191.237 84.3972 192.885 83.5772 194.467 82.8465C195.172 82.5199 195.628 81.8092 195.628 81.0292C195.625 80.2479 195.169 79.5385 194.461 79.2132C183.323 74.1025 172.975 74.9945 160.907 82.1079C157.461 84.1385 154.172 86.8852 151.396 90.0532C145.527 96.7545 142.656 104.32 143.721 110.291Z" fill="#BF1E24"/>
</svg>
