<svg width="222" height="170" viewBox="0 0 222 170" fill="none" xmlns="http://www.w3.org/2000/svg">
<path d="M167.197 93.524C172.744 89.4454 181.851 92.4587 181.851 102.272C184.517 96.7654 196.171 98.0987 195.571 107.325C199.184 104.939 204.171 107.099 204.011 112.205C208.904 109.579 217.891 114.979 215.932 122.952C213.277 122.085 210.144 122.539 207.571 124.659C206.011 118.592 199.611 116.712 194.011 117.099C189.652 117.404 185.957 120.699 184.557 124.152C182.117 122.619 178.904 122.285 175.344 123.099C169.237 124.485 165.677 128.272 164.904 133.539C162.171 128.432 154.677 130.592 153.784 135.325C151.851 128.432 145.011 126.432 140.344 126.939C136.331 127.365 131.184 129.605 129.664 135.485C126.344 132.297 120.971 129.952 115.117 130.432C110.717 130.792 106.637 133.059 104.144 136.404C103.477 130.524 92.0908 128.312 87.8241 133.832C85.7708 131.432 82.3041 129.579 78.5174 129.259C74.7308 128.952 69.6641 129.925 66.7441 133.379C65.9174 127.9 58.3974 124.524 53.1708 126.524C51.5308 120.285 39.1308 115.765 33.3441 125.992C32.6774 119.765 27.7841 117.325 23.3441 117.325C16.6641 117.325 13.1174 122.432 12.9041 125.539C11.3041 124.645 9.51745 124.432 7.81078 124.765C5.65211 116.885 14.9441 110.845 20.2374 114.432C18.9041 106.432 28.6775 103.099 33.1841 108.432C31.3575 101.272 38.8241 96.2187 44.6241 98.352C46.6521 90.952 59.0508 86.6187 65.3441 94.872C66.2374 89.5387 71.4375 86.0454 77.8508 86.9387C80.8374 87.352 83.1841 88.8454 84.6908 90.712C86.9041 84.6854 96.2654 83.4187 99.3441 88.7654C101.277 78.0067 119.637 73.0707 127.011 84.4587C129.464 83.2187 132.531 82.8574 136.011 83.7654C141.571 85.2187 144.517 89.9254 144.904 93.5387C148.291 83.7654 164.144 85.5387 167.184 93.524H167.197Z" fill="#D87639"/>
<path d="M33.344 125.992C39.1307 115.765 51.5307 120.285 53.1707 126.524C58.3974 124.524 65.9174 127.9 66.744 133.379C69.664 129.925 74.7307 128.952 78.5174 129.259C82.304 129.579 85.7707 131.432 87.824 133.832C92.0907 128.312 103.477 130.524 104.144 136.404C106.637 133.059 110.717 130.792 115.117 130.432C120.971 129.952 126.344 132.297 129.664 135.485C131.184 129.605 136.331 127.365 140.344 126.939C145.011 126.432 151.851 128.432 153.784 135.325C154.677 130.592 162.171 128.432 164.904 133.539C165.677 128.272 169.237 124.485 175.344 123.099C178.904 122.285 182.117 122.619 184.557 124.152C185.892 120.86 189.321 117.743 193.415 117.191C190.04 113.925 183.727 114.397 181.851 118.272C181.851 108.459 172.744 105.445 167.197 109.524H167.184C164.144 101.539 148.291 99.7654 144.904 109.539C144.517 105.925 141.571 101.219 136.011 99.7654C132.531 98.8574 129.464 99.2187 127.011 100.459C119.637 89.0707 101.277 94.0067 99.344 104.765C96.2654 99.4187 86.904 100.685 84.6907 106.712C83.184 104.845 80.8374 103.352 77.8507 102.939C71.4374 102.045 66.2374 105.539 65.344 110.872C59.0507 102.619 46.652 106.952 44.624 114.352C38.824 112.219 31.3574 117.272 33.184 124.432L33.016 124.264C33.16 124.808 33.2774 125.376 33.344 125.992Z" fill="#B74F2F"/>
<path d="M192.23 127.543C192.23 138.771 158.652 147.876 117.23 147.876C75.8105 147.876 42.2305 138.771 42.2305 127.543C42.2305 116.315 75.8105 107.209 117.23 107.209C158.652 107.209 192.23 116.315 192.23 127.543Z" fill="#612D26"/>
<path d="M215.932 122.952C219.411 124.07 222.104 127.432 221.784 132.205C221.291 139.752 216.331 142.006 211.224 141.272C211.224 142.63 210.917 144.085 210.237 145.538C207.877 150.645 199.571 152.658 191.571 149.098C189.599 159.698 175.571 160.285 170.117 156.857C167.371 163.085 158.265 164.872 153.397 160.912C151.304 167.112 140.104 168.352 136.171 162.098C132.517 167.432 126.291 170.098 116.171 169.098C110.599 168.538 107.171 166.685 105.144 164.392C96.4508 172.673 81.7974 167.258 79.5041 160.098C77.1841 163.258 71.8508 165.258 65.3441 164.098C61.7041 163.445 58.0374 160.978 56.3841 157.392C51.0774 163.765 38.1174 160.524 37.1841 152.765C30.9574 155.045 19.5041 154.432 15.8508 148.938C14.5708 147.018 13.8374 145.152 13.5307 143.392C5.47741 144.006 0.304088 140.418 0.0107543 134.432C-0.229246 129.578 3.58409 125.552 7.81075 124.765C9.51742 124.432 11.3041 124.645 12.9041 125.538C13.1174 122.432 16.6641 117.325 23.3441 117.325C27.7841 117.325 32.6774 119.765 33.3441 125.992C39.1308 115.765 51.5308 120.285 53.1707 126.524C58.3974 124.524 65.9174 127.9 66.7441 133.378C69.6641 129.925 74.7308 128.952 78.5174 129.258C82.3041 129.578 85.7707 131.432 87.8241 133.832C92.0907 128.312 103.477 130.524 104.144 136.404C106.637 133.058 110.717 130.792 115.117 130.432C120.971 129.952 126.344 132.297 129.664 135.485C131.184 129.605 136.331 127.365 140.344 126.938C145.011 126.432 151.851 128.432 153.784 135.325C154.677 130.592 162.171 128.432 164.904 133.538C165.677 128.272 169.237 124.485 175.344 123.098C178.904 122.285 182.117 122.618 184.557 124.152C185.957 120.698 189.652 117.404 194.011 117.098C199.611 116.712 206.011 118.592 207.571 124.658C210.144 122.538 213.277 122.085 215.932 122.952Z" fill="#E88D3A"/>
<path d="M216.549 123.209C215.979 130.18 211.319 132.273 206.513 131.584C206.513 132.88 206.221 134.265 205.575 135.649C203.324 140.516 195.408 142.436 187.784 139.042C185.903 149.145 172.535 149.704 167.337 146.438C164.719 152.373 156.043 154.076 151.403 150.3C149.407 156.209 138.735 157.392 134.985 151.432C131.501 156.514 125.568 159.057 115.924 158.104C110.612 157.569 107.345 155.802 105.415 153.618C97.1293 161.509 83.1626 156.349 80.9786 149.526C78.7666 152.537 73.684 154.444 67.484 153.338C64.0133 152.716 60.5186 150.365 58.944 146.946C53.8853 153.02 41.536 149.933 40.6453 142.537C34.7106 144.709 23.7946 144.125 20.3133 138.889C19.0933 137.061 18.3933 135.282 18.1013 133.605C10.6973 134.168 5.8613 131.001 5.2773 125.653C2.18396 127.258 -0.178703 130.581 0.0106299 134.432C0.303963 140.418 5.47728 144.006 13.5306 143.392C13.8373 145.152 14.5706 147.018 15.8506 148.938C19.504 154.432 30.9573 155.045 37.184 152.765C38.1173 160.524 51.0773 163.765 56.384 157.392C58.0373 160.978 61.704 163.445 65.344 164.098C71.8506 165.258 77.184 163.258 79.504 160.098C81.7973 167.258 96.4506 172.673 105.144 164.392C107.171 166.685 110.599 168.538 116.171 169.098C126.291 170.098 132.517 167.432 136.171 162.098C140.104 168.352 151.304 167.112 153.397 160.912C158.265 164.872 167.371 163.085 170.117 156.857C175.571 160.285 189.599 159.698 191.571 149.098C199.571 152.658 207.877 150.645 210.237 145.538C210.917 144.085 211.224 142.63 211.224 141.272C216.331 142.006 221.291 139.752 221.784 132.205C222.085 127.725 219.719 124.513 216.549 123.209Z" fill="#D87639"/>
<path d="M55.1815 135.707L54.9202 135.513C54.5682 135.089 54.1375 134.74 53.6402 134.501C53.2149 133.188 52.3428 132.048 51.0602 131.245C50.2442 130.736 49.1309 130.464 48.1149 130.56C48.1389 130.307 48.1575 130.053 48.1415 129.809C48.0402 128.373 47.5349 127.217 46.5815 126.141C45.0082 124.367 41.9455 124.467 40.3549 126.111C39.1842 127.319 39.0469 128.945 39.6482 130.271C39.3722 131.439 39.7975 132.721 40.6002 133.605C41.2895 134.368 42.5349 134.72 43.5482 134.653C43.0309 135.863 42.9269 137.277 43.2762 138.495C43.9682 140.892 46.1562 141.872 48.3695 141.748C49.1775 141.883 50.0135 141.892 50.8882 141.871L51.0162 141.925H51.0215C52.4175 142.499 53.9709 142.368 55.1815 141.157C56.5455 139.792 56.8229 137.024 55.1815 135.707Z" fill="#F1AC56"/>
<path d="M74.7413 134.332C73.4333 134.632 72.1173 135.252 71.052 136.131C70.728 135.923 70.3759 135.748 69.9799 135.587C71.5559 136.231 70.6053 135.811 70.22 135.619C69.2213 135.119 68.5386 134.969 67.4373 134.853C66.5919 134.765 65.5346 135.077 64.8213 135.519C63.972 136.045 63.0173 137.013 62.8679 138.032C62.7053 139.139 62.7039 139.312 62.8693 140.416C63.0626 141.72 64.4119 142.827 65.6066 143.155C65.9839 143.259 66.3853 143.295 66.788 143.277L66.9346 143.332C67.8026 143.56 68.6013 143.456 69.3933 143.204C69.6639 143.74 69.9973 144.243 70.4119 144.68C70.9146 145.869 71.8973 146.881 73.3626 147.367C75.9879 148.236 79.3253 147.767 81.5226 146.128C84.8373 143.66 86.0466 139.369 83.1053 136.071C81.1479 133.877 77.3959 133.723 74.7413 134.332Z" fill="#F1AC56"/>
<path d="M58.6787 129.843C57.1467 129.843 55.8667 131.121 55.8667 132.655C55.8667 134.188 57.1467 135.467 58.6787 135.467C60.2107 135.467 61.4907 134.188 61.4907 132.655C61.4907 131.121 60.2107 129.843 58.6787 129.843Z" fill="#F1AC56"/>
<path d="M131.567 143.88C130.176 143.88 129.015 145.04 129.015 146.432C129.015 147.824 130.176 148.984 131.567 148.984C132.957 148.984 134.119 147.824 134.119 146.432C134.119 145.04 132.957 143.88 131.567 143.88Z" fill="#F1AC56"/>
<path d="M99.4637 139.805C98.4344 139.349 97.6544 139.095 96.4984 139.069C95.4557 139.045 94.3891 139.472 93.4891 139.939C91.0344 141.209 89.7931 144.595 91.3291 147.004C91.7984 147.737 92.4331 148.316 93.1758 148.688C93.7664 149.321 94.5278 149.792 95.3691 149.972C96.5944 150.233 97.6598 150.021 98.7771 149.469L98.9651 149.348C99.8224 148.679 99.9278 148.603 99.2771 149.121C99.6624 148.881 100.018 148.581 100.354 148.276C101.55 147.183 102.161 145.947 102.316 144.323C102.489 142.507 101.068 140.516 99.4637 139.805Z" fill="#F1AC56"/>
<path d="M125.972 139.357C124.272 137.6 121.888 136.78 119.511 136.531C116.511 136.22 114.049 137.073 112.268 139.597C112.056 139.9 111.877 140.208 111.719 140.521C110.403 139.924 108.832 139.837 107.403 140.084C107.089 140.139 106.793 140.239 106.512 140.368C104.556 141.056 103.231 143.213 103.468 145.269C103.728 147.525 105.1 149.423 107.413 149.936C109.399 150.376 111.303 149.868 112.855 148.584L112.887 148.551C113.891 149.657 115.245 150.491 116.852 150.847C117.26 150.939 117.664 150.984 118.069 151.009C118.955 151.173 119.861 151.128 120.701 150.873C120.835 150.884 120.964 150.899 121.1 150.904C126.775 151.144 129.768 143.284 125.972 139.357Z" fill="#F1AC56"/>
<path d="M147.533 135.529C147.505 135.32 147.467 135.112 147.4 134.907C147.043 133.824 145.977 132.736 144.724 132.871C143.361 133.016 142.179 133.515 141.444 134.759C141.044 135.436 140.953 136.165 141.052 136.857C138.824 136.989 136.981 138.687 136.911 140.969C136.852 141.16 136.801 141.349 136.765 141.537C136.432 143.227 137.22 145.308 139.116 145.679C140.339 145.917 141.421 146.019 142.648 145.785C144.907 145.355 146.269 143.289 146.356 141.099C146.379 140.513 146.237 139.955 145.995 139.439C147.015 138.832 147.691 137.683 147.625 136.516L147.636 136.436C147.625 136.056 147.504 135.215 147.533 135.529Z" fill="#F1AC56"/>
<path d="M189.011 129.448C188.14 129.448 187.335 129.748 186.674 130.236L186.574 129.981C186.444 129.707 186.138 128.849 186.527 130.024C186.338 129.455 186.058 128.808 185.712 128.293C184.106 125.889 181.6 124.895 178.768 125.321C180.416 125.073 178.534 125.285 177.983 125.469C177.146 125.748 176.39 126.141 175.759 126.772C174.552 127.977 174.012 129.856 174.46 131.512L174.402 131.859C173.759 131.824 173.067 131.895 172.587 132.069C171.431 132.489 170.703 133.103 169.975 133.975C169.56 133.843 169.131 133.749 168.678 133.749C166.571 133.749 164.783 135.313 164.41 137.324C163.991 136.941 163.524 136.612 163.082 136.373C161.679 135.62 160.128 135.384 158.579 135.779C156.89 136.208 155.479 137.936 155.546 139.713L155.492 139.78C154.906 140.608 154.944 141.769 155.15 142.701C155.376 143.74 156.263 144.655 157.139 145.207C158.155 145.848 159.491 146.095 160.676 145.975C162.044 145.84 163.687 145.492 164.647 144.4C165.238 143.727 165.716 143.053 165.93 142.164C165.984 141.933 166.002 141.717 166.022 141.5C166.763 142.083 167.679 142.448 168.678 142.448C169.358 142.448 169.995 142.271 170.574 141.983C170.804 142.149 171.048 142.292 171.307 142.412C171.72 143.099 172.508 143.816 173.324 143.949C174.499 144.141 175.462 144.352 176.663 144.112C178.432 143.759 179.548 142.045 180.128 140.477C180.35 139.88 180.422 139.285 180.386 138.709C181.22 138.707 182.044 138.603 182.742 138.447C184.027 138.159 185.274 137.267 186.12 136.137C186.852 136.917 187.878 137.416 189.011 137.416C191.183 137.416 192.995 135.604 192.995 133.432C192.995 131.26 191.183 129.448 189.011 129.448Z" fill="#F1AC56"/>
<path d="M202.826 122.975C202.099 121.649 200.944 120.912 199.58 120.376C198.475 119.94 196.971 119.792 195.85 120.22C194.007 120.92 192.642 122.347 192.642 124.432C192.642 125.272 192.871 125.999 193.256 126.62C193.342 127.603 193.679 128.236 194.28 129.012C194.674 129.519 195.31 129.889 195.895 130.152C197.126 130.709 198.516 131.255 199.874 130.736C201.532 130.103 202.546 129.029 203.156 127.379C203.694 125.927 203.57 124.329 202.826 122.975Z" fill="#F1AC56"/>
<mask id="mask0_1_207" style="mask-type:luminance" maskUnits="userSpaceOnUse" x="52" y="32" width="118" height="116">
<path d="M167.444 112.441C165.791 96.7746 163.538 82.0546 160.511 72.908C152.364 48.2293 133.364 32.896 110.898 32.896C88.4443 32.896 69.4443 48.2293 61.2977 72.908C58.0177 82.868 55.631 99.428 53.9243 116.628C53.231 123.668 52.6443 130.828 52.1523 137.668C65.0977 143.761 89.391 147.881 117.231 147.881C137.778 147.881 156.391 145.641 169.939 142.015C169.324 132.548 168.498 122.308 167.444 112.441Z" fill="white"/>
</mask>
<g mask="url(#mask0_1_207)">
<path d="M110.904 179.051C122.831 179.051 160.683 176.976 169.498 171.272C167.943 132.383 164.355 90.948 158.61 73.5293C150.886 50.1214 132.92 34.9014 110.904 34.9014C88.891 34.9014 70.923 50.1214 63.2017 73.5293C57.4537 90.948 53.8684 132.383 52.311 171.272C61.1257 176.976 98.9804 179.051 110.904 179.051Z" fill="#CD5C29"/>
<path d="M110.904 154.784C87.4804 154.784 66.9337 142.256 55.311 123.421C53.9537 138.545 52.9564 155.124 52.311 171.272C61.1257 176.976 98.9804 179.051 110.904 179.051C122.831 179.051 160.683 176.976 169.498 171.272C168.852 155.124 167.855 138.545 166.5 123.421C154.876 142.256 134.328 154.784 110.904 154.784Z" fill="#BA4927"/>
<path d="M59.6444 172.64C61.1124 135.964 64.495 96.8867 69.915 80.4587C77.199 58.3827 94.1444 44.0267 114.904 44.0267C135.667 44.0267 152.612 58.3827 159.896 80.4587C160.888 83.4707 160.11 78.0773 158.61 73.5293C150.886 50.1213 132.92 34.9014 110.904 34.9014C88.891 34.9014 70.923 50.1213 63.2017 73.5293C57.4537 90.948 53.8684 132.383 52.311 171.272C55.4044 173.273 61.683 173.959 59.6444 172.64Z" fill="#E6894A"/>
<path d="M54.3604 170.136C64.0324 174.985 98.279 177.051 110.904 177.051C123.53 177.051 157.779 174.985 167.451 170.136C165.59 124.76 161.584 88.932 156.71 74.156C149.128 51.1773 131.576 36.9014 110.904 36.9014C90.2324 36.9014 72.6804 51.1773 65.1004 74.156C60.2244 88.932 56.219 124.76 54.3604 170.136ZM110.904 181.051C103.576 181.051 61.4337 179.557 51.2243 172.952C50.631 172.568 50.2844 171.899 50.3137 171.192C51.2017 148.957 54.0524 94.872 61.3004 72.9026C69.4404 48.2293 88.4484 32.9014 110.904 32.9014C133.363 32.9014 152.368 48.2293 160.508 72.9026C167.756 94.872 170.607 148.957 171.498 171.192C171.524 171.899 171.178 172.568 170.584 172.952C160.378 179.557 118.235 181.051 110.904 181.051Z" fill="#100F0D"/>
</g>
<path d="M50.4895 137.356L50.4148 137.557C44.5002 135.347 39.3135 132.423 35.4375 129.361C42.6255 125.588 53.8228 124.201 56.8935 124.336L57.9535 124.708C56.5655 128.743 54.1695 133.001 50.4895 137.356Z" fill="#FDEAB3"/>
<path d="M57.9534 124.708L56.8934 124.336C45.9947 122.807 39.6147 119.867 33.1094 115.599C39.06 112.657 48.5707 110.148 58.044 111.403L59.1774 111.168C59.8987 115.236 59.6694 119.811 57.9534 124.708Z" fill="#FDEAB3"/>
<path d="M53.4947 99.2906C56.1614 102.352 58.3134 106.413 59.1774 111.168L58.0441 111.403C47.5867 108.916 40.3281 105.627 34.1147 103.463C39.7561 100.175 45.9067 98.2839 53.4947 99.2906Z" fill="#FDEAB3"/>
<path d="M84.675 127.5C84.0924 135.027 76.7377 143.155 62.2243 140.744C58.1097 140.069 54.1204 138.944 50.415 137.557L50.4897 137.356C54.1697 133.001 56.5657 128.743 57.9537 124.708C59.6697 119.811 59.899 115.236 59.1777 111.168C58.3137 106.413 56.1617 102.352 53.495 99.2907C57.267 99.7894 61.3764 101.003 65.951 103.116C76.5764 108.04 85.339 118.987 84.675 127.5Z" fill="#CD5C29"/>
<path d="M77.9614 135.884C75.3441 137.933 70.5494 140.097 62.5601 138.772C59.3521 138.237 56.1281 137.409 53.0001 136.353C63.3001 122.927 62.1388 110.389 57.1334 102.057C59.5974 102.68 62.2454 103.612 65.1121 104.939C68.3574 106.443 71.5374 108.609 74.3054 111.2C79.8441 116.388 83.0521 122.576 82.6828 127.352C82.4281 130.625 80.7067 133.736 77.9614 135.884ZM55.8907 126.339C54.6254 129.264 52.8028 132.293 50.3334 135.393C46.3761 133.851 42.6441 131.943 39.4068 129.769C45.4534 127.428 52.8254 126.455 55.8907 126.339ZM37.4227 115.924C42.9147 113.867 50.3654 112.4 57.7841 113.387C57.9174 113.403 58.0428 113.369 58.1668 113.361C58.4308 116.18 58.1854 119.208 57.3054 122.391L57.1774 122.352C48.2948 121.105 42.6414 118.948 37.4227 115.924ZM40.0921 103.535C39.7614 103.409 39.4374 103.287 39.1174 103.167C42.9121 101.551 47.5654 100.512 53.4334 101.325C55.1641 103.572 56.5428 106.22 57.3854 109.173C50.4094 107.44 44.9334 105.372 40.0921 103.535ZM77.0428 108.281C73.9641 105.401 70.4227 102.991 66.7948 101.309C54.0841 95.4199 43.6961 95.5532 33.1174 101.736C32.4428 102.129 32.0601 102.88 32.1334 103.657C32.2108 104.435 32.7348 105.097 33.4694 105.352C35.1148 105.923 36.8361 106.576 38.6721 107.273C40.7481 108.061 42.9308 108.891 45.3001 109.72C40.1721 110.569 35.5867 112.149 32.2241 113.809C31.5841 114.127 31.1588 114.765 31.1148 115.483C31.0734 116.196 31.4068 116.884 32.0161 117.275C36.0494 119.92 40.1494 122.145 45.4094 123.836C41.6828 124.677 37.7321 125.903 34.5188 127.589C33.9201 127.904 33.5214 128.501 33.4561 129.176C33.4014 129.793 33.6308 130.401 34.0814 130.82L34.2068 130.931C41.4068 136.624 51.7588 141.032 61.9068 142.717C71.3281 144.281 77.1774 141.577 80.4308 139.033C84.0521 136.196 86.3281 132.052 86.6694 127.663C87.1441 121.615 83.5401 114.369 77.0428 108.281Z" fill="#100F0D"/>
<path d="M171.321 137.356L171.396 137.557C177.311 135.347 182.497 132.423 186.373 129.361C179.185 125.588 167.988 124.201 164.917 124.336L163.857 124.708C165.245 128.743 167.641 133.001 171.321 137.356Z" fill="#FDEAB3"/>
<path d="M163.857 124.708L164.917 124.336C175.816 122.807 182.196 119.867 188.701 115.599C182.75 112.657 173.24 110.148 163.766 111.403L162.633 111.168C161.912 115.236 162.141 119.811 163.857 124.708Z" fill="#FDEAB3"/>
<path d="M168.316 99.2906C165.649 102.352 163.497 106.413 162.633 111.168L163.767 111.403C174.224 108.916 181.483 105.627 187.696 103.463C182.055 100.175 175.904 98.2839 168.316 99.2906Z" fill="#FDEAB3"/>
<path d="M137.136 127.5C137.719 135.027 145.073 143.155 159.587 140.744C163.701 140.069 167.691 138.944 171.396 137.557L171.321 137.356C167.641 133.001 165.245 128.743 163.857 124.708C162.141 119.811 161.912 115.236 162.633 111.168C163.497 106.413 165.649 102.352 168.316 99.2907C164.544 99.7894 160.435 101.003 155.86 103.116C145.235 108.04 136.472 118.987 137.136 127.5Z" fill="#CD5C29"/>
<path d="M139.128 127.352C138.759 122.576 141.967 116.388 147.505 111.2C150.273 108.609 153.453 106.443 156.699 104.939C159.565 103.612 162.213 102.68 164.677 102.057C159.672 110.389 158.511 122.927 168.811 136.353C165.683 137.409 162.459 138.237 159.251 138.772C151.261 140.097 146.467 137.933 143.849 135.884C141.104 133.736 139.383 130.625 139.128 127.352ZM182.404 129.769C179.167 131.943 175.435 133.851 171.477 135.393C169.008 132.293 167.185 129.264 165.92 126.339C168.985 126.455 176.357 127.428 182.404 129.769ZM164.633 122.352L164.505 122.391C163.625 119.208 163.38 116.18 163.644 113.361C163.768 113.369 163.893 113.403 164.027 113.387C171.445 112.4 178.896 113.867 184.388 115.924C179.169 118.948 173.516 121.105 164.633 122.352ZM164.425 109.173C165.268 106.22 166.647 103.572 168.377 101.325C174.245 100.512 178.899 101.551 182.693 103.167C182.373 103.287 182.049 103.409 181.719 103.535C176.877 105.372 171.401 107.44 164.425 109.173ZM135.141 127.663C135.483 132.052 137.759 136.196 141.38 139.033C144.633 141.577 150.483 144.281 159.904 142.717C170.052 141.032 180.404 136.624 187.604 130.931L187.729 130.82C188.18 130.401 188.409 129.793 188.355 129.176C188.289 128.501 187.891 127.904 187.292 127.589C184.079 125.903 180.128 124.677 176.401 123.836C181.661 122.145 185.761 119.92 189.795 117.275C190.404 116.884 190.737 116.196 190.696 115.483C190.652 114.765 190.227 114.127 189.587 113.809C186.224 112.149 181.639 110.569 176.511 109.72C178.88 108.891 181.063 108.061 183.139 107.273C184.975 106.576 186.696 105.923 188.341 105.352C189.076 105.097 189.6 104.435 189.677 103.657C189.751 102.88 189.368 102.129 188.693 101.736C178.115 95.5532 167.727 95.4199 155.016 101.309C151.388 102.991 147.847 105.401 144.768 108.281C138.271 114.369 134.667 121.615 135.141 127.663Z" fill="#100F0D"/>
<path d="M215.932 122.902C219.411 124.02 222.104 127.382 221.784 132.155C221.291 139.702 216.331 141.956 211.224 141.222C211.224 142.58 210.917 144.035 210.237 145.488C207.877 150.595 199.571 152.608 191.571 149.048C189.599 159.648 175.571 160.235 170.117 156.807C167.371 163.035 158.265 164.822 153.397 160.862C151.304 167.062 140.104 168.302 136.171 162.048C132.517 167.382 126.291 170.048 116.171 169.048C110.599 168.488 107.171 166.635 105.144 164.342C96.4508 172.623 81.7974 167.208 79.5041 160.048C77.1841 163.208 71.8508 165.208 65.3441 164.048C61.7041 163.395 58.0374 160.928 56.3841 157.342C51.0774 163.715 38.1174 160.474 37.1841 152.715C30.9574 154.995 19.5041 154.382 15.8508 148.888C14.5708 146.968 13.8374 145.102 13.5307 143.342C5.47741 143.956 0.304088 140.368 0.0107543 134.382C-0.229246 129.528 3.58409 125.502 7.81075 124.715C9.51742 124.382 11.3041 124.595 12.9041 125.488C13.1174 122.382 16.6641 117.275 23.3441 117.275C27.7841 117.275 32.6774 119.715 33.3441 125.942C39.1308 115.715 51.5308 120.235 53.1707 126.474C58.3974 124.474 65.9174 127.85 66.7441 133.328C69.6641 129.875 74.7308 128.902 78.5174 129.208C82.3041 129.528 85.7707 131.382 87.8241 133.782C92.0907 128.262 103.477 130.474 104.144 136.354C106.637 133.008 110.717 130.742 115.117 130.382C120.971 129.902 126.344 132.247 129.664 135.435C131.184 129.555 136.331 127.315 140.344 126.888C145.011 126.382 151.851 128.382 153.784 135.275C154.677 130.542 162.171 128.382 164.904 133.488C165.677 128.222 169.237 124.435 175.344 123.048C178.904 122.235 182.117 122.568 184.557 124.102C185.957 120.648 189.652 117.354 194.011 117.048C199.611 116.662 206.011 118.542 207.571 124.608C210.144 122.488 213.277 122.035 215.932 122.902Z" fill="#E88D3A"/>
<path d="M216.549 123.209C215.979 130.18 211.319 132.273 206.513 131.584C206.513 132.88 206.221 134.265 205.575 135.649C203.324 140.516 195.408 142.436 187.784 139.042C185.903 149.145 172.535 149.704 167.337 146.438C164.719 152.373 156.043 154.076 151.403 150.3C149.407 156.209 138.735 157.392 134.985 151.432C131.501 156.514 125.568 159.057 115.924 158.104C110.612 157.569 107.345 155.802 105.415 153.618C97.1293 161.509 83.1626 156.349 80.9786 149.526C78.7666 152.537 73.684 154.444 67.484 153.338C64.0133 152.716 60.5186 150.365 58.944 146.946C53.8853 153.02 41.536 149.933 40.6453 142.537C34.7106 144.709 23.7946 144.125 20.3133 138.889C19.0933 137.061 18.3933 135.282 18.1013 133.605C10.6973 134.168 5.8613 131.001 5.2773 125.653C2.18396 127.258 -0.178703 130.581 0.0106299 134.432C0.303963 140.418 5.47728 144.006 13.5306 143.392C13.8373 145.152 14.5706 147.018 15.8506 148.938C19.504 154.432 30.9573 155.045 37.184 152.765C38.1173 160.524 51.0773 163.765 56.384 157.392C58.0373 160.978 61.704 163.445 65.344 164.098C71.8506 165.258 77.184 163.258 79.504 160.098C81.7973 167.258 96.4506 172.673 105.144 164.392C107.171 166.685 110.599 168.538 116.171 169.098C126.291 170.098 132.517 167.432 136.171 162.098C140.104 168.352 151.304 167.112 153.397 160.912C158.265 164.872 167.371 163.085 170.117 156.857C175.571 160.285 189.599 159.698 191.571 149.098C199.571 152.658 207.877 150.645 210.237 145.538C210.917 144.085 211.224 142.63 211.224 141.272C216.331 142.006 221.291 139.752 221.784 132.205C222.085 127.725 219.719 124.513 216.549 123.209Z" fill="#D87639"/>
<path d="M55.1815 135.707L54.9202 135.513C54.5682 135.089 54.1375 134.74 53.6402 134.501C53.2149 133.188 52.3428 132.048 51.0602 131.245C50.2442 130.736 49.1309 130.464 48.1149 130.56C48.1389 130.307 48.1575 130.053 48.1415 129.809C48.0402 128.373 47.5349 127.217 46.5815 126.141C45.0082 124.367 41.9455 124.467 40.3549 126.111C39.1842 127.319 39.0469 128.945 39.6482 130.271C39.3722 131.439 39.7975 132.721 40.6002 133.605C41.2895 134.368 42.5349 134.72 43.5482 134.653C43.0309 135.863 42.9269 137.277 43.2762 138.495C43.9682 140.892 46.1562 141.872 48.3695 141.748C49.1775 141.883 50.0135 141.892 50.8882 141.871L51.0162 141.925H51.0215C52.4175 142.499 53.9709 142.368 55.1815 141.157C56.5455 139.792 56.8229 137.024 55.1815 135.707Z" fill="#F1AC56"/>
<path d="M74.7413 134.332C73.4333 134.632 72.1173 135.252 71.052 136.131C70.728 135.923 70.3759 135.748 69.9799 135.587C71.5559 136.231 70.6053 135.811 70.22 135.619C69.2213 135.119 68.5386 134.969 67.4373 134.853C66.5919 134.765 65.5346 135.077 64.8213 135.519C63.972 136.045 63.0173 137.013 62.8679 138.032C62.7053 139.139 62.7039 139.312 62.8693 140.416C63.0626 141.72 64.4119 142.827 65.6066 143.155C65.9839 143.259 66.3853 143.295 66.788 143.277L66.9346 143.332C67.8026 143.56 68.6013 143.456 69.3933 143.204C69.6639 143.74 69.9973 144.243 70.4119 144.68C70.9146 145.869 71.8973 146.881 73.3626 147.367C75.9879 148.236 79.3253 147.767 81.5226 146.128C84.8373 143.66 86.0466 139.369 83.1053 136.071C81.1479 133.877 77.3959 133.723 74.7413 134.332Z" fill="#F1AC56"/>
<path d="M58.6787 129.843C57.1467 129.843 55.8667 131.121 55.8667 132.655C55.8667 134.188 57.1467 135.467 58.6787 135.467C60.2107 135.467 61.4907 134.188 61.4907 132.655C61.4907 131.121 60.2107 129.843 58.6787 129.843Z" fill="#F1AC56"/>
<path d="M131.567 143.88C130.176 143.88 129.015 145.04 129.015 146.432C129.015 147.824 130.176 148.984 131.567 148.984C132.957 148.984 134.119 147.824 134.119 146.432C134.119 145.04 132.957 143.88 131.567 143.88Z" fill="#F1AC56"/>
<path d="M99.4637 139.805C98.4344 139.349 97.6544 139.095 96.4984 139.069C95.4557 139.045 94.3891 139.472 93.4891 139.939C91.0344 141.209 89.7931 144.595 91.3291 147.004C91.7984 147.737 92.4331 148.316 93.1758 148.688C93.7664 149.321 94.5278 149.792 95.3691 149.972C96.5944 150.233 97.6598 150.021 98.7771 149.469L98.9651 149.348C99.8224 148.679 99.9278 148.603 99.2771 149.121C99.6624 148.881 100.018 148.581 100.354 148.276C101.55 147.183 102.161 145.947 102.316 144.323C102.489 142.507 101.068 140.516 99.4637 139.805Z" fill="#F1AC56"/>
<path d="M125.972 139.357C124.272 137.6 121.888 136.78 119.511 136.531C116.511 136.22 114.049 137.073 112.268 139.597C112.056 139.9 111.877 140.208 111.719 140.521C110.403 139.924 108.832 139.837 107.403 140.084C107.089 140.139 106.793 140.239 106.512 140.368C104.556 141.056 103.231 143.213 103.468 145.269C103.728 147.525 105.1 149.423 107.413 149.936C109.399 150.376 111.303 149.868 112.855 148.584L112.887 148.551C113.891 149.657 115.245 150.491 116.852 150.847C117.26 150.939 117.664 150.984 118.069 151.009C118.955 151.173 119.861 151.128 120.701 150.873C120.835 150.884 120.964 150.899 121.1 150.904C126.775 151.144 129.768 143.284 125.972 139.357Z" fill="#F1AC56"/>
<path d="M147.533 135.529C147.505 135.32 147.467 135.112 147.4 134.907C147.043 133.824 145.977 132.736 144.724 132.871C143.361 133.016 142.179 133.515 141.444 134.759C141.044 135.436 140.953 136.165 141.052 136.857C138.824 136.989 136.981 138.687 136.911 140.969C136.852 141.16 136.801 141.349 136.765 141.537C136.432 143.227 137.22 145.308 139.116 145.679C140.339 145.917 141.421 146.019 142.648 145.785C144.907 145.355 146.269 143.289 146.356 141.099C146.379 140.513 146.237 139.955 145.995 139.439C147.015 138.832 147.691 137.683 147.625 136.516L147.636 136.436C147.625 136.056 147.504 135.215 147.533 135.529Z" fill="#F1AC56"/>
<path d="M189.011 129.448C188.14 129.448 187.335 129.748 186.674 130.236L186.574 129.981C186.444 129.707 186.138 128.849 186.527 130.024C186.338 129.455 186.058 128.808 185.712 128.293C184.106 125.889 181.6 124.895 178.768 125.321C180.416 125.073 178.534 125.285 177.983 125.469C177.146 125.748 176.39 126.141 175.759 126.772C174.552 127.977 174.012 129.856 174.46 131.512L174.402 131.859C173.759 131.824 173.067 131.895 172.587 132.069C171.431 132.489 170.703 133.103 169.975 133.975C169.56 133.843 169.131 133.749 168.678 133.749C166.571 133.749 164.783 135.313 164.41 137.324C163.991 136.941 163.524 136.612 163.082 136.373C161.679 135.62 160.128 135.384 158.579 135.779C156.89 136.208 155.479 137.936 155.546 139.713L155.492 139.78C154.906 140.608 154.944 141.769 155.15 142.701C155.376 143.74 156.263 144.655 157.139 145.207C158.155 145.848 159.491 146.095 160.676 145.975C162.044 145.84 163.687 145.492 164.647 144.4C165.238 143.727 165.716 143.053 165.93 142.164C165.984 141.933 166.002 141.717 166.022 141.5C166.763 142.083 167.679 142.448 168.678 142.448C169.358 142.448 169.995 142.271 170.574 141.983C170.804 142.149 171.048 142.292 171.307 142.412C171.72 143.099 172.508 143.816 173.324 143.949C174.499 144.141 175.462 144.352 176.663 144.112C178.432 143.759 179.548 142.045 180.128 140.477C180.35 139.88 180.422 139.285 180.386 138.709C181.22 138.707 182.044 138.603 182.742 138.447C184.027 138.159 185.274 137.267 186.12 136.137C186.852 136.917 187.878 137.416 189.011 137.416C191.183 137.416 192.995 135.604 192.995 133.432C192.995 131.26 191.183 129.448 189.011 129.448Z" fill="#F1AC56"/>
<path d="M202.826 122.975C202.099 121.649 200.944 120.912 199.58 120.376C198.475 119.94 196.971 119.792 195.85 120.22C194.007 120.92 192.642 122.347 192.642 124.432C192.642 125.272 192.871 125.999 193.256 126.62C193.342 127.603 193.679 128.236 194.28 129.012C194.674 129.519 195.31 129.889 195.895 130.152C197.126 130.709 198.516 131.255 199.874 130.736C201.532 130.103 202.546 129.029 203.156 127.379C203.694 125.927 203.57 124.329 202.826 122.975Z" fill="#F1AC56"/>
<path d="M69.2446 85.0906C76.4113 83.4439 94.4114 78.1746 100.307 70.5413C98.9114 65.1653 96.0781 60.7199 91.7448 57.3733C93.5781 60.0613 94.0914 61.5159 95.0781 63.8492C89.8594 67.5399 78.8568 70.3266 67.7446 70.7653C67.2446 75.0453 67.7446 80.3159 69.2446 85.0906Z" fill="#100F0D"/>
<path d="M94.3872 90.1958C94.3872 96.4838 89.2285 101.58 82.8645 101.58C76.4996 101.58 71.3408 96.4838 71.3408 90.1958C71.3408 83.9078 76.4996 78.8119 82.8645 78.8119C89.2285 78.8119 94.3872 83.9078 94.3872 90.1958Z" fill="#100F0D"/>
<path d="M91.1792 90.1962C91.1792 94.7322 87.4552 98.4109 82.8646 98.4109C78.2726 98.4109 74.5518 94.7322 74.5518 90.1962C74.5518 85.6588 78.2726 81.9815 82.8646 81.9815C87.4552 81.9815 91.1792 85.6588 91.1792 90.1962Z" fill="white"/>
<path d="M150.759 86.7173C143.592 85.0706 125.592 79.8013 119.693 72.168C121.092 66.792 123.925 62.3466 128.256 59C126.425 61.688 125.912 63.1426 124.925 65.4759C130.144 69.1666 141.147 71.9533 152.256 72.392C152.759 76.672 152.259 81.9426 150.759 86.7173Z" fill="#100F0D"/>
<path d="M126.81 90.1958C126.81 96.4838 131.969 101.58 138.333 101.58C144.695 101.58 149.854 96.4838 149.854 90.1958C149.854 83.9078 144.695 78.8119 138.333 78.8119C131.969 78.8119 126.81 83.9078 126.81 90.1958Z" fill="#100F0D"/>
<path d="M130.018 90.1962C130.018 94.7322 133.739 98.4109 138.333 98.4109C142.925 98.4109 146.646 94.7322 146.646 90.1962C146.646 85.6588 142.925 81.9815 138.333 81.9815C133.739 81.9815 130.018 85.6588 130.018 90.1962Z" fill="white"/>
<g clip-path="url(#clip0_1_207)">
<path fill-rule="evenodd" clip-rule="evenodd" d="M132.159 129.182C130.41 120.001 128.711 111.175 127.76 107.132L127.598 107.013C124.386 111.124 117.878 113.943 110.386 113.943C102.878 113.943 96.3718 111.124 93.1731 107L92.9984 107.132C91.8106 111.703 89.8805 121.894 88 131.964C92.532 127.043 103.28 129.294 103.927 135.002C106.42 131.657 110.5 129.39 114.9 129.03C120.753 128.55 126.127 130.895 129.447 134.083C129.977 132.032 130.948 130.424 132.159 129.182Z" fill="#461C1E"/>
<path fill-rule="evenodd" clip-rule="evenodd" d="M110.653 116.57C103.888 116.57 97.6611 114.365 93.8251 110.71C92.9334 114.469 91.3563 123.282 89.8087 132.01C89.0753 132.47 88.4199 133.045 87.879 133.745C87.6095 133.43 87.3157 133.125 87 132.831C88.9149 122.53 90.8455 112.283 92.0345 107.958C92.1038 107.703 92.3131 107.534 92.5158 107.393L92.6225 107.273C93.2078 106.829 94.0438 106.939 94.4918 107.514C97.5731 111.475 103.765 113.937 110.653 113.937C117.537 113.937 123.726 111.478 126.81 107.519C127.258 106.943 128.094 106.834 128.68 107.281L128.762 107.374C128.98 107.517 129.204 107.69 129.27 107.958C130.259 111.751 131.909 120.313 133.629 129.437C132.75 130.107 131.946 130.925 131.276 131.911C130.73 128.857 130.191 125.797 129.69 122.95C128.764 117.685 127.966 113.147 127.482 110.711C123.644 114.365 117.417 116.57 110.653 116.57Z" fill="#100F0D"/>
</g>
<path d="M119.029 113.853L119.041 113.907C119.041 118.096 115.268 125.183 110.601 125.183C105.934 125.183 102.149 118.096 102.149 113.907L102.174 113.853C104.721 114.657 107.589 115.119 110.601 115.119C113.63 115.119 116.482 114.657 119.029 113.853Z" fill="#F8F8F8"/>
<path d="M110.601 89.6427C121.268 89.6427 129.934 95.3453 129.934 102.38C129.934 107.427 125.482 111.785 119.029 113.853C116.482 114.657 113.63 115.119 110.601 115.119C107.589 115.119 104.721 114.657 102.174 113.853V113.841C95.7209 111.785 91.2676 107.427 91.2676 102.38C91.2676 95.3453 99.9222 89.6427 110.601 89.6427Z" fill="#FDEAB3"/>
<path d="M119.374 97.7362C119.374 100.828 115.445 104.796 110.598 104.796C105.75 104.796 101.819 100.828 101.819 97.7362C101.819 94.6455 105.75 93.5988 110.598 93.5988C115.445 93.5988 119.374 94.6455 119.374 97.7362Z" fill="#100F0D"/>
<path d="M110.346 96.7642C110.469 97.5748 109.365 98.4108 107.877 98.6321C106.39 98.8535 105.086 98.3761 104.961 97.5681C104.838 96.7588 105.942 95.9228 107.429 95.7015C108.917 95.4801 110.224 95.9562 110.346 96.7642Z" fill="white"/>
<path d="M110.598 113.797C100.672 113.797 92.5983 108.676 92.5983 102.38C92.5983 96.0853 100.672 90.9626 110.598 90.9626C120.524 90.9626 128.598 96.0853 128.598 102.38C128.598 108.676 120.524 113.797 110.598 113.797ZM111.598 123.703V116.397C113.661 116.329 115.646 116.059 117.508 115.607C116.816 118.884 114.362 122.881 111.598 123.703ZM103.688 115.607C105.552 116.059 107.534 116.329 109.598 116.397V123.703C106.833 122.881 104.38 118.884 103.688 115.607ZM131.265 102.38C131.265 94.632 121.994 88.328 110.598 88.328C99.2036 88.328 89.9316 94.632 89.9316 102.38C89.9316 107.737 94.365 112.4 100.868 114.769C101.328 119.315 105.208 126.503 110.598 126.503C115.986 126.503 119.87 119.315 120.328 114.769C126.83 112.4 131.265 107.737 131.265 102.38Z" fill="#100F0D"/>
<path d="M97.6929 103.607H87.1715C86.8022 103.607 86.5049 103.313 86.5049 102.948C86.5049 102.585 86.8022 102.291 87.1715 102.291H97.6929C98.0622 102.291 98.3596 102.585 98.3596 102.948C98.3596 103.313 98.0622 103.607 97.6929 103.607Z" fill="#100F0D"/>
<path d="M87.8073 111.556C87.5673 111.556 87.3352 111.428 87.2152 111.204C87.0432 110.881 87.1713 110.484 87.4966 110.316L97.3819 105.181C97.7072 105.013 98.1112 105.137 98.2832 105.459C98.4552 105.78 98.3272 106.179 98.0019 106.348L88.1166 111.481L87.8073 111.556Z" fill="#100F0D"/>
<path d="M97.6926 101.105L97.3819 101.029L87.4966 95.8958C87.1713 95.7278 87.0432 95.3292 87.2152 95.0079C87.3872 94.6866 87.7939 94.5639 88.1166 94.7306L98.0019 99.8639C98.3272 100.033 98.4552 100.431 98.2832 100.753C98.1632 100.977 97.9313 101.105 97.6926 101.105Z" fill="#100F0D"/>
<path d="M134.026 103.607H123.502C123.135 103.607 122.835 103.313 122.835 102.948C122.835 102.585 123.135 102.291 123.502 102.291H134.026C134.393 102.291 134.693 102.585 134.693 102.948C134.693 103.313 134.393 103.607 134.026 103.607Z" fill="#100F0D"/>
<path d="M133.39 111.556L133.081 111.481L123.193 106.348C122.867 106.179 122.742 105.78 122.914 105.459C123.086 105.137 123.489 105.013 123.813 105.181L133.701 110.316C134.026 110.484 134.15 110.881 133.979 111.204C133.862 111.428 133.63 111.556 133.39 111.556Z" fill="#100F0D"/>
<path d="M123.502 101.105C123.262 101.105 123.031 100.977 122.914 100.753C122.742 100.431 122.867 100.033 123.193 99.8639L133.081 94.7306C133.403 94.5639 133.81 94.6866 133.979 95.0079C134.15 95.3292 134.026 95.7278 133.701 95.8958L123.813 101.029L123.502 101.105Z" fill="#100F0D"/>
<path d="M83.4968 32.5934C82.1368 32.5934 78.6008 30.2054 77.0858 29.1347C75.1728 30.3081 71.4566 32.5041 70.4504 32.5041C70.1796 32.5041 69.9306 32.3761 69.7665 32.1548C69.2613 31.4721 69.6588 28.9574 70.9478 24.6774C68.8134 23.0974 65.6665 20.5348 65.6665 19.1655C65.6665 18.2481 66.4853 17.3988 72.4269 17.3988C72.7821 17.3988 73.0884 17.4027 73.3228 17.4067C75.8514 10.6681 76.6988 10.6681 77.1118 10.6681C77.5244 10.6681 78.3728 10.6681 80.9088 17.4268C88.5568 17.6041 88.5568 18.6161 88.5568 19.1655C88.5568 19.9801 86.7781 21.8267 83.2674 24.6574C85.2408 31.312 84.4928 32.0601 84.2448 32.3095C84.1154 32.4375 83.8808 32.5921 83.4968 32.5934Z" fill="#F8ED1C"/>
<path d="M82.8503 24.1386C82.6396 24.3093 82.5516 24.5892 82.6289 24.8478C84.4369 30.9452 83.8463 31.764 83.7729 31.8373C83.7156 31.8946 83.6196 31.9266 83.4956 31.9266C82.7036 31.9253 80.3383 30.6145 77.4699 28.5905C77.3552 28.5079 77.2213 28.4679 77.086 28.4679C76.9647 28.4679 76.8448 28.4999 76.7369 28.5666C72.5271 31.1493 70.8047 31.8373 70.4505 31.8373L70.3047 31.7613C70.2484 31.6746 69.8151 30.7506 71.586 24.8706C71.6677 24.6 71.5703 24.3092 71.3448 24.1412C67.6459 21.4039 66.3333 19.7506 66.3333 19.1653C66.3333 18.7546 67.1251 18.0653 72.4271 18.0653C72.7787 18.0653 73.0808 18.0692 73.3109 18.0732C73.5808 18.0532 73.8475 17.9039 73.9464 17.6412C76.1443 11.7865 76.9765 11.3639 77.1589 11.3346C77.2475 11.3639 78.0823 11.788 80.2849 17.6599C80.3796 17.9159 80.6209 18.0866 80.8929 18.0933C87.2423 18.2413 87.8409 18.9813 87.8903 19.1599C87.8756 19.3239 87.5609 20.3386 82.8503 24.1386ZM89.2236 19.1653C89.2236 17.7626 87.9583 16.9573 81.3729 16.7706C78.9956 10.5186 78.0356 10.0012 77.112 10.0012C76.1912 10.0012 75.2317 10.5173 72.8647 16.7333C72.7292 16.7333 72.5833 16.732 72.4271 16.732C67.0131 16.732 65 17.392 65 19.1653C65 19.6346 65 21.0386 70.1756 24.932C68.526 30.524 68.7683 31.9265 69.2317 32.5519C69.5219 32.9452 69.9672 33.1706 70.4505 33.1706C70.7719 33.1706 71.7355 33.1705 77.0609 29.9305C79.3209 31.5052 82.1436 33.2599 83.4969 33.2599H83.4996C84.1103 33.2573 84.4983 32.9972 84.7156 32.7799C85.1529 32.3425 85.9596 31.5386 84.0329 24.8959C88.5969 21.1786 89.2236 19.912 89.2236 19.1653Z" fill="#C7901A"/>
<path d="M77.1205 13.6814C76.5961 13.6814 75.4138 17.2507 74.9148 18.6627C73.2524 19.0787 69.2038 18.7867 68.859 19.5361C68.5049 20.3054 73.3992 21.8481 75.8914 22.0294C80.2193 22.3441 85.5553 20.7374 85.4393 19.648C85.382 19.112 80.6273 19.04 79.3393 18.7867C78.7153 16.6294 77.868 13.6814 77.1205 13.6814Z" fill="white"/>
<path d="M150.609 54.3708C149.248 54.3708 145.713 51.9829 144.197 50.9122C142.284 52.0855 138.568 54.2815 137.561 54.2815C137.29 54.2815 137.041 54.1535 136.877 53.9322C136.373 53.2495 136.769 50.7348 138.058 46.4548C135.925 44.8748 132.777 42.3122 132.777 40.9429C132.777 40.0255 133.596 39.1763 139.538 39.1763C139.893 39.1763 140.2 39.1802 140.433 39.1842C142.962 32.4455 143.81 32.4455 144.222 32.4455C144.636 32.4455 145.484 32.4456 148.021 39.2042C155.669 39.3816 155.669 40.3935 155.669 40.9429C155.669 41.7575 153.89 43.6042 150.38 46.4348C152.352 53.0895 151.604 53.8375 151.357 54.0869C151.226 54.2149 150.992 54.3695 150.609 54.3708Z" fill="#F8ED1C"/>
<path d="M149.961 45.9161C149.75 46.0868 149.664 46.3668 149.74 46.6255C151.549 52.7228 150.958 53.5415 150.885 53.6148C150.828 53.6722 150.732 53.7041 150.606 53.7041C149.816 53.7028 147.45 52.3921 144.581 50.3681C144.466 50.2855 144.332 50.2455 144.197 50.2455C144.076 50.2455 143.956 50.2775 143.848 50.3442C139.638 52.9268 137.916 53.6148 137.561 53.6148L137.416 53.5388C137.36 53.4522 136.926 52.5282 138.697 46.6482C138.778 46.3775 138.681 46.0868 138.456 45.9188C134.757 43.1815 133.444 41.5281 133.444 40.9428C133.444 40.5321 134.236 39.8429 139.538 39.8429C139.889 39.8429 140.192 39.8468 140.422 39.8508C140.692 39.8308 140.958 39.6815 141.057 39.4188C143.256 33.5641 144.088 33.1415 144.269 33.1121C144.358 33.1415 145.193 33.5655 147.396 39.4375C147.492 39.6935 147.732 39.8642 148.005 39.8709C154.354 40.0189 154.953 40.7588 155.002 40.9375C154.986 41.1015 154.672 42.1161 149.961 45.9161ZM156.336 40.9428C156.336 39.5401 155.07 38.7348 148.484 38.5481C146.106 32.2961 145.146 31.7788 144.222 31.7788C143.302 31.7788 142.342 32.2948 139.976 38.5108C139.84 38.5108 139.694 38.5095 139.538 38.5095C134.124 38.5095 132.11 39.1695 132.11 40.9428C132.11 41.4121 132.11 42.8161 137.286 46.7095C135.637 52.3015 135.878 53.7041 136.342 54.3295C136.633 54.7228 137.078 54.9482 137.561 54.9482C137.882 54.9482 138.846 54.9482 144.172 51.7082C146.432 53.2828 149.256 55.0375 150.609 55.0375H150.612C151.221 55.0348 151.609 54.7748 151.828 54.5575C152.265 54.1201 153.07 53.3161 151.144 46.6735C155.708 42.9561 156.336 41.6895 156.336 40.9428Z" fill="#C7901A"/>
<path d="M144.232 35.4589C143.706 35.4589 142.525 39.0283 142.026 40.4403C140.364 40.8563 136.316 40.5642 135.97 41.3136C135.616 42.0829 140.51 43.6256 143.002 43.8069C147.33 44.1216 152.666 42.515 152.552 41.4256C152.494 40.8896 147.74 40.8176 146.45 40.5642C145.828 38.4069 144.98 35.4589 144.232 35.4589Z" fill="white"/>
<path d="M137.498 22.5921C136.138 22.5921 132.602 20.2042 131.087 19.1335C129.174 20.3068 125.458 22.5028 124.451 22.5028C124.181 22.5028 123.931 22.3748 123.767 22.1534C123.262 21.4708 123.659 18.9562 124.949 14.6762C122.815 13.0962 119.667 10.5334 119.667 9.16411C119.667 8.24677 120.486 7.39744 126.429 7.39744C126.783 7.39744 127.09 7.40151 127.323 7.40551C129.853 0.666847 130.701 0.666843 131.113 0.666843C131.526 0.666843 132.374 0.666771 134.91 7.42544C142.558 7.60277 142.558 8.61477 142.558 9.16411C142.558 9.97878 140.779 11.8255 137.269 14.6562C139.242 21.3108 138.494 22.0588 138.246 22.3081C138.117 22.4361 137.882 22.5908 137.498 22.5921Z" fill="#F8ED1C"/>
<path d="M136.852 14.1374C136.641 14.308 136.553 14.588 136.63 14.8466C138.438 20.944 137.848 21.7626 137.774 21.8359C137.717 21.8933 137.621 21.9253 137.497 21.9253C136.705 21.9239 134.34 20.6133 131.472 18.5893C131.357 18.5067 131.222 18.4667 131.088 18.4667C130.966 18.4667 130.846 18.4987 130.738 18.5654C126.529 21.148 124.806 21.8359 124.452 21.8359L124.306 21.76C124.25 21.6734 123.817 20.7493 125.588 14.8693C125.669 14.5986 125.572 14.308 125.346 14.14C121.648 11.4027 120.334 9.74928 120.334 9.16395C120.334 8.75328 121.126 8.06395 126.429 8.06395C126.78 8.06395 127.082 8.06802 127.313 8.07202C127.582 8.05202 127.849 7.90265 127.948 7.63999C130.146 1.78532 130.978 1.36268 131.16 1.33335C131.249 1.36268 132.084 1.78661 134.286 7.65861C134.381 7.91461 134.622 8.08527 134.894 8.09194C141.244 8.23994 141.842 8.97994 141.892 9.15861C141.877 9.32261 141.562 10.3374 136.852 14.1374ZM143.225 9.16395C143.225 7.76128 141.96 6.95595 135.374 6.76928C132.997 0.517284 132.037 1.33514e-05 131.113 1.33514e-05C130.193 1.33514e-05 129.233 0.516045 126.866 6.73204C126.73 6.73204 126.585 6.73061 126.429 6.73061C121.014 6.73061 119.001 7.39061 119.001 9.16395C119.001 9.63328 119.001 11.0373 124.177 14.9306C122.528 20.5226 122.769 21.9253 123.233 22.5507C123.524 22.944 123.969 23.1693 124.452 23.1693C124.773 23.1693 125.737 23.1693 131.062 19.9293C133.322 21.504 136.145 23.2586 137.498 23.2586H137.501C138.112 23.2559 138.5 22.996 138.717 22.7787C139.154 22.3413 139.961 21.5373 138.034 14.8947C142.598 11.1773 143.225 9.91061 143.225 9.16395Z" fill="#C7901A"/>
<path d="M131.122 3.68002C130.597 3.68002 129.416 7.2494 128.917 8.6614C127.254 9.0774 123.206 8.78538 122.861 9.53471C122.506 10.304 127.401 11.8467 129.893 12.0281C134.221 12.3427 139.557 10.736 139.441 9.64669C139.384 9.11069 134.629 9.0387 133.341 8.78536C132.717 6.62803 131.87 3.68002 131.122 3.68002Z" fill="white"/>
<path d="M97.4967 65.703C96.1367 65.703 92.6007 63.315 91.086 62.2443C89.1727 63.4177 85.4567 65.6136 84.45 65.6136C84.1793 65.6136 83.93 65.4857 83.766 65.2643C83.262 64.5817 83.658 62.067 84.9474 57.787C82.814 56.207 79.666 53.6443 79.666 52.275C79.666 51.3577 80.4847 50.5083 86.4274 50.5083C86.782 50.5083 87.0887 50.5123 87.322 50.5163C89.8513 43.7776 90.6994 43.7777 91.1114 43.7777C91.5247 43.7777 92.3727 43.7777 94.9087 50.5363C102.557 50.7137 102.557 51.7257 102.557 52.275C102.557 53.0897 100.778 54.9363 97.2673 57.767C99.2407 64.4217 98.4927 65.1696 98.2447 65.419C98.1154 65.547 97.8807 65.7017 97.4967 65.703Z" fill="#F8ED1C"/>
<path d="M96.8502 57.2482C96.6395 57.4188 96.5515 57.6988 96.6289 57.9575C98.4368 64.0548 97.8462 64.8735 97.7728 64.9468C97.7155 65.0041 97.6195 65.0362 97.4955 65.0362C96.7035 65.0348 94.3382 63.7242 91.4702 61.7002C91.3555 61.6175 91.2208 61.5775 91.0862 61.5775C90.9648 61.5775 90.8448 61.6095 90.7368 61.6761C86.5275 64.2588 84.8048 64.9468 84.4502 64.9468L84.3048 64.8708C84.2488 64.7841 83.8155 63.8601 85.5862 57.9801C85.6675 57.7095 85.5702 57.4188 85.3448 57.2508C81.6462 54.5135 80.3328 52.8602 80.3328 52.2748C80.3328 51.8642 81.1248 51.1748 86.4275 51.1748C86.7782 51.1748 87.0808 51.1788 87.3115 51.1828C87.5808 51.1628 87.8475 51.0135 87.9462 50.7508C90.1449 44.8962 90.9768 44.4735 91.1582 44.4442C91.2475 44.4735 92.0822 44.8975 94.2848 50.7695C94.3795 51.0255 94.6208 51.1962 94.8928 51.2028C101.242 51.3508 101.841 52.0908 101.89 52.2695C101.876 52.4335 101.561 53.4482 96.8502 57.2482ZM103.224 52.2748C103.224 50.8722 101.958 50.0668 95.3728 49.8801C92.9955 43.6281 92.0355 43.1108 91.1115 43.1108C90.1915 43.1108 89.2315 43.6268 86.8648 49.8428C86.7288 49.8428 86.5835 49.8415 86.4275 49.8415C81.0128 49.8415 78.9995 50.5015 78.9995 52.2748C78.9995 52.7442 78.9995 54.1482 84.1755 58.0415C82.5262 63.6335 82.7675 65.0362 83.2315 65.6615C83.5222 66.0548 83.9675 66.2801 84.4502 66.2801C84.7715 66.2801 85.7355 66.2801 91.0608 63.0401C93.3208 64.6148 96.1435 66.3695 97.4969 66.3695H97.4995C98.1102 66.3668 98.4982 66.1068 98.7155 65.8895C99.1528 65.4522 99.9595 64.6482 98.0328 58.0055C102.597 54.2882 103.224 53.0215 103.224 52.2748Z" fill="#C7901A"/>
<path d="M91.1209 46.7909C90.5956 46.7909 89.4142 50.3603 88.9156 51.7723C87.2529 52.1883 83.2049 51.8963 82.8596 52.6456C82.5049 53.4149 87.3996 54.9576 89.8916 55.139C94.2196 55.4536 99.5556 53.8469 99.4396 52.7576C99.3822 52.2216 94.6276 52.1496 93.3396 51.8963C92.7156 49.7389 91.8689 46.7909 91.1209 46.7909Z" fill="white"/>
<defs>
<clipPath id="clip0_1_207">
<rect width="55" height="29" fill="white" transform="translate(83 107)"/>
</clipPath>
</defs>
</svg>
