<svg width="222" height="193" viewBox="0 0 222 193" fill="none" xmlns="http://www.w3.org/2000/svg">
<path d="M167.196 116.672C172.743 112.593 181.85 115.607 181.85 125.42C184.516 119.913 196.171 121.247 195.57 130.473C199.183 128.087 204.171 130.247 204.011 135.353C208.903 132.727 217.891 138.127 215.931 146.099C213.278 145.233 210.143 145.687 207.57 147.807C206.011 141.74 199.611 139.86 194.011 140.247C189.651 140.552 185.956 143.847 184.558 147.3C182.118 145.765 178.903 145.432 175.344 146.247C169.236 147.633 165.678 151.42 164.903 156.687C162.171 151.58 154.678 153.74 153.784 158.473C151.85 151.58 145.011 149.58 140.344 150.087C136.331 150.513 131.183 152.753 129.664 158.633C126.344 155.445 120.97 153.099 115.118 153.58C110.718 153.94 106.636 156.207 104.143 159.552C103.476 153.672 92.0898 151.46 87.8245 156.98C85.7711 154.58 82.3031 152.727 78.5165 152.407C74.7308 152.099 69.6641 153.073 66.7437 156.527C65.9166 151.047 58.3974 147.672 53.1709 149.672C51.5302 143.432 39.1302 138.913 33.3437 149.14C32.677 142.913 27.7838 140.473 23.3437 140.473C16.6641 140.473 13.1171 145.58 12.9037 148.687C11.3037 147.793 9.51714 147.58 7.80981 147.913C5.65101 140.033 14.9442 133.992 20.237 137.58C18.9037 129.58 28.677 126.247 33.1838 131.58C31.3567 124.42 38.8245 119.367 44.6239 121.5C46.651 114.099 59.051 109.765 65.3437 118.02C66.237 112.687 71.4375 109.193 77.8505 110.087C80.8378 110.5 83.1831 111.992 84.6898 113.86C86.9031 107.833 96.2645 106.567 99.3445 111.913C101.278 101.153 119.636 96.2187 127.011 107.607C129.463 106.367 132.53 106.005 136.011 106.913C141.57 108.367 144.516 113.073 144.903 116.687C148.29 106.913 164.143 108.687 167.183 116.672H167.196Z" fill="#D87639"/>
<path d="M33.344 149.14C39.1305 138.913 51.5305 143.432 53.1712 149.672C58.3977 147.672 65.9169 151.047 66.744 156.527C69.6644 153.073 74.7311 152.099 78.5168 152.407C82.3035 152.727 85.7714 154.58 87.8248 156.98C92.0901 151.46 103.477 153.672 104.143 159.552C106.637 156.207 110.718 153.94 115.118 153.58C120.97 153.099 126.345 155.445 129.665 158.633C131.183 152.753 136.331 150.513 140.345 150.087C145.011 149.58 151.85 151.58 153.785 158.473C154.678 153.74 162.171 151.58 164.903 156.687C165.678 151.42 169.237 147.633 175.345 146.247C178.903 145.432 182.118 145.765 184.558 147.3C185.893 144.008 189.321 140.891 193.414 140.339C190.039 137.073 183.727 137.544 181.85 141.42C181.85 131.607 172.743 128.593 167.197 132.672H167.183C164.143 124.687 148.29 122.913 144.903 132.687C144.517 129.073 141.57 124.367 136.011 122.913C132.53 122.005 129.463 122.367 127.011 123.607C119.637 112.219 101.278 117.153 99.3448 127.913C96.2648 122.567 86.9034 123.833 84.6901 129.86C83.1834 127.992 80.8381 126.5 77.8508 126.087C71.4378 125.193 66.2373 128.687 65.344 134.02C59.0513 125.765 46.6513 130.099 44.6242 137.5C38.8248 135.367 31.357 140.42 33.1841 147.58L33.0159 147.412C33.1607 147.956 33.2779 148.524 33.344 149.14Z" fill="#B74F2F"/>
<path d="M192.232 150.691C192.232 161.919 158.652 171.024 117.232 171.024C75.8105 171.024 42.2314 161.919 42.2314 150.691C42.2314 139.463 75.8105 130.357 117.232 130.357C158.652 130.357 192.232 139.463 192.232 150.691Z" fill="#612D26"/>
<path d="M215.932 146.099C219.41 147.219 222.105 150.58 221.785 155.353C221.29 162.9 216.332 165.153 211.225 164.42C211.225 165.779 210.917 167.233 210.237 168.687C207.878 173.793 199.57 175.807 191.57 172.247C189.598 182.847 175.57 183.432 170.118 180.005C167.37 186.233 158.265 188.02 153.398 184.06C151.304 190.26 140.105 191.5 136.172 185.247C132.517 190.58 126.29 193.247 116.172 192.247C110.598 191.687 107.172 189.833 105.144 187.54C96.4515 195.82 81.7968 190.407 79.5048 183.247C77.1842 186.407 71.8508 188.407 65.344 187.247C61.7035 186.593 58.0368 184.127 56.3847 180.54C51.0774 186.913 38.1175 183.672 37.1842 175.913C30.9576 178.193 19.5046 177.58 15.8508 172.087C14.5707 170.167 13.8379 168.3 13.5306 166.54C5.47684 167.153 0.304044 163.567 0.0107102 157.58C-0.228756 152.727 3.58364 148.7 7.81018 147.913C9.51751 147.58 11.304 147.793 12.904 148.687C13.1175 145.58 16.6644 140.473 23.344 140.473C27.7842 140.473 32.6774 142.913 33.344 149.14C39.1306 138.913 51.5306 143.432 53.1712 149.672C58.3978 147.672 65.917 151.047 66.744 156.527C69.6644 153.073 74.7311 152.099 78.5169 152.407C82.3035 152.727 85.7715 154.58 87.8248 156.98C92.0902 151.46 103.477 153.672 104.144 159.552C106.637 156.207 110.718 153.94 115.118 153.58C120.97 153.099 126.345 155.445 129.665 158.633C131.184 152.753 136.332 150.513 140.345 150.087C145.012 149.58 151.85 151.58 153.785 158.473C154.678 153.74 162.172 151.58 164.904 156.687C165.678 151.42 169.237 147.633 175.345 146.247C178.904 145.432 182.118 145.765 184.558 147.3C185.957 143.847 189.652 140.552 194.012 140.247C199.612 139.86 206.012 141.74 207.57 147.807C210.144 145.687 213.278 145.233 215.932 146.099Z" fill="#E88D3A"/>
<path d="M216.55 146.357C215.978 153.328 211.318 155.421 206.513 154.732C206.513 156.028 206.222 157.413 205.574 158.797C203.325 163.664 195.408 165.584 187.785 162.191C185.902 172.293 172.534 172.852 167.338 169.587C164.719 175.521 156.042 177.224 151.402 173.448C149.406 179.357 138.736 180.54 134.985 174.58C131.502 179.663 125.569 182.205 115.924 181.252C110.613 180.717 107.346 178.951 105.414 176.765C97.1288 184.656 83.1635 179.497 80.9782 172.675C78.7675 175.685 73.6842 177.592 67.4836 176.485C64.0134 175.864 60.5186 173.513 58.9446 170.095C53.8858 176.168 41.5358 173.081 40.6451 165.685C34.7102 167.857 23.7946 167.273 20.3128 162.037C19.0931 160.208 18.3935 158.429 18.1019 156.753C10.6972 157.316 5.86123 154.149 5.2779 148.801C2.18417 150.407 -0.179301 153.729 0.010699 157.58C0.304032 163.567 5.47683 167.153 13.5306 166.54C13.8379 168.3 14.5707 170.167 15.8508 172.087C19.5046 177.58 30.9576 178.193 37.1842 175.913C38.1175 183.672 51.0774 186.913 56.3847 180.54C58.0368 184.127 61.7035 186.593 65.344 187.247C71.8508 188.407 77.1842 186.407 79.5048 183.247C81.7968 190.407 96.4515 195.82 105.144 187.54C107.172 189.833 110.598 191.687 116.172 192.247C126.29 193.247 132.517 190.58 136.171 185.247C140.105 191.5 151.303 190.26 153.398 184.06C158.265 188.02 167.37 186.233 170.118 180.005C175.57 183.432 189.598 182.847 191.57 172.247C199.57 175.807 207.878 173.793 210.237 168.687C210.917 167.233 211.225 165.779 211.225 164.42C216.331 165.153 221.29 162.9 221.785 155.353C222.085 150.873 219.72 147.661 216.55 146.357Z" fill="#D87639"/>
<path d="M29.8037 150.649L29.8281 150.667L29.8844 150.707L29.8037 150.649Z" fill="#F1AC56"/>
<path d="M30.3282 151.053C30.1615 150.925 29.9938 150.796 29.8282 150.667C29.2891 150.185 28.6475 149.867 27.973 149.736C28.223 149.104 28.3533 148.363 28.2725 147.691C28.0705 146.005 27.4574 144.899 26.073 143.888C24.9913 143.099 23.5027 143.185 22.2657 143.38C21.1839 143.552 20.1486 144.341 19.3751 145.063C17.5538 146.761 16.4793 149.667 17.835 151.961C18.9219 153.8 21.3022 154.511 23.3429 154.075C23.2881 154.665 23.3533 155.263 23.5913 155.839C23.9391 156.675 24.0653 156.897 24.6433 157.615C25.1877 158.289 26.1918 158.56 27.0105 158.595C27.2762 158.605 27.9314 158.785 27.0954 158.565C28.6199 158.967 30.1615 158.313 30.9834 156.984C31.5443 156.076 31.5277 155.069 31.5642 154.052C31.5902 153.308 31.3949 152.495 30.9923 151.865C30.8246 151.544 30.6033 151.273 30.3282 151.053Z" fill="#F1AC56"/>
<path d="M55.1816 158.855L54.9196 158.661C54.568 158.237 54.1373 157.888 53.6399 157.649C53.2155 156.336 52.3431 155.196 51.0601 154.393C50.244 153.883 49.1305 153.612 48.1149 153.707C48.1383 153.455 48.1581 153.201 48.1409 152.957C48.0393 151.521 47.5341 150.365 46.5811 149.289C45.0081 147.515 41.9456 147.615 40.3545 149.259C39.1841 150.467 39.0472 152.093 39.6477 153.419C39.3716 154.587 39.7972 155.869 40.5992 156.753C41.2893 157.516 42.5341 157.868 43.5488 157.801C43.0305 159.011 42.9264 160.425 43.2764 161.643C43.968 164.04 46.1555 165.02 48.3691 164.896C49.1773 165.031 50.0133 165.04 50.8883 165.019L51.0159 165.073H51.0237C52.4169 165.647 53.9707 165.516 55.1816 164.305C56.5461 162.94 56.8221 160.172 55.1816 158.855Z" fill="#F1AC56"/>
<path d="M74.7414 157.48C73.434 157.78 72.1174 158.4 71.0523 159.279C70.7283 159.071 70.3752 158.896 69.9794 158.735C71.5564 159.377 70.6059 158.959 70.2206 158.765C69.2215 158.265 68.5382 158.117 67.4378 158.001C66.5914 157.913 65.534 158.225 64.8206 158.667C63.9715 159.193 63.0174 160.16 62.8674 161.18C62.7048 162.287 62.7034 162.46 62.869 163.564C63.0627 164.868 64.4116 165.975 65.607 166.303C65.9835 166.407 66.3856 166.443 66.7882 166.425L66.9351 166.48C67.8023 166.707 68.6018 166.603 69.3934 166.352C69.6643 166.888 69.9976 167.391 70.4116 167.828C70.9143 169.017 71.8976 170.029 73.3622 170.515C75.9872 171.384 79.326 170.915 81.522 169.276C84.838 166.808 86.0474 162.517 83.106 159.219C81.1474 157.025 77.396 156.871 74.7414 157.48Z" fill="#F1AC56"/>
<path d="M58.6787 152.989C57.1459 152.989 55.8662 154.268 55.8662 155.803C55.8662 157.336 57.1459 158.615 58.6787 158.615C60.211 158.615 61.4913 157.336 61.4913 155.803C61.4913 154.268 60.211 152.989 58.6787 152.989Z" fill="#F1AC56"/>
<path d="M131.567 167.028C130.177 167.028 129.014 168.188 129.014 169.58C129.014 170.972 130.177 172.132 131.567 172.132C132.957 172.132 134.119 170.972 134.119 169.58C134.119 168.188 132.957 167.028 131.567 167.028Z" fill="#F1AC56"/>
<path d="M33.5366 159.055L33.4391 159.128C32.3793 159.424 31.697 160.837 32.6694 161.811C33.6449 162.787 35.0667 162.097 35.3569 161.035L35.4246 160.943C36.2334 159.849 34.6293 158.244 33.5366 159.055Z" fill="#F1AC56"/>
<path d="M99.4633 162.953C98.4353 162.497 97.654 162.243 96.4993 162.216C95.4566 162.193 94.39 162.62 93.4886 163.087C91.034 164.357 89.7926 167.743 91.33 170.151C91.798 170.885 92.4326 171.464 93.1766 171.836C93.766 172.47 94.5273 172.94 95.3686 173.12C96.594 173.38 97.6606 173.169 98.778 172.617L98.9646 172.496C99.8233 171.825 99.9273 171.751 99.278 172.268C99.6633 172.029 100.018 171.729 100.354 171.424C101.551 170.331 102.162 169.095 102.315 167.471C102.489 165.653 101.069 163.664 99.4633 162.953Z" fill="#F1AC56"/>
<path d="M125.972 162.505C124.273 160.748 121.889 159.928 119.512 159.679C116.512 159.368 114.05 160.221 112.269 162.745C112.057 163.047 111.878 163.356 111.72 163.669C110.402 163.072 108.833 162.984 107.402 163.232C107.089 163.287 106.793 163.387 106.513 163.516C104.557 164.204 103.232 166.361 103.468 168.417C103.729 170.673 105.101 172.571 107.413 173.084C109.4 173.524 111.302 173.016 112.854 171.732L112.888 171.699C113.892 172.805 115.245 173.639 116.852 173.995C117.26 174.087 117.665 174.132 118.069 174.156C118.956 174.32 119.861 174.276 120.701 174.021C120.836 174.032 120.964 174.045 121.1 174.052C126.776 174.292 129.769 166.431 125.972 162.505Z" fill="#F1AC56"/>
<path d="M147.533 158.677C147.506 158.468 147.466 158.26 147.401 158.055C147.042 156.972 145.977 155.884 144.725 156.019C143.361 156.164 142.179 156.663 141.445 157.907C141.045 158.584 140.954 159.313 141.053 160.005C138.825 160.137 136.981 161.835 136.91 164.117C136.851 164.308 136.801 164.497 136.765 164.685C136.431 166.373 137.221 168.456 139.117 168.825C140.339 169.065 141.421 169.167 142.647 168.932C144.906 168.503 146.27 166.436 146.355 164.247C146.379 163.661 146.237 163.101 145.995 162.587C147.014 161.98 147.69 160.831 147.625 159.664L147.635 159.584C147.625 159.204 147.505 158.363 147.533 158.677Z" fill="#F1AC56"/>
<path d="M189.012 152.596C188.14 152.596 187.336 152.896 186.674 153.384L186.573 153.129C186.445 152.855 186.137 151.998 186.526 153.172C186.338 152.602 186.058 151.956 185.713 151.442C184.106 149.038 181.6 148.042 178.769 148.47C180.416 148.222 178.533 148.432 177.982 148.617C177.145 148.896 176.39 149.289 175.758 149.92C174.553 151.125 174.013 153.004 174.46 154.659L174.402 155.007C173.758 154.972 173.068 155.041 172.586 155.216C171.43 155.637 170.702 156.251 169.974 157.123C169.561 156.989 169.13 156.898 168.678 156.898C166.57 156.898 164.784 158.462 164.409 160.472C163.992 160.09 163.524 159.76 163.081 159.521C161.68 158.767 160.128 158.532 158.578 158.927C156.89 159.356 155.478 161.084 155.546 162.862L155.493 162.928C154.905 163.756 154.945 164.917 155.149 165.849C155.376 166.888 156.262 167.803 157.138 168.355C158.154 168.996 159.492 169.243 160.677 169.123C162.044 168.987 163.686 168.64 164.646 167.547C165.237 166.873 165.717 166.201 165.929 165.312C165.984 165.081 166.002 164.865 166.021 164.648C166.762 165.231 167.68 165.596 168.678 165.596C169.357 165.596 169.996 165.419 170.573 165.131C170.804 165.298 171.049 165.44 171.306 165.56C171.721 166.247 172.509 166.964 173.325 167.096C174.5 167.289 175.461 167.5 176.664 167.26C178.432 166.907 179.549 165.193 180.128 163.625C180.349 163.028 180.421 162.432 180.386 161.857C181.221 161.855 182.045 161.751 182.741 161.595C184.026 161.307 185.274 160.415 186.121 159.285C186.852 160.065 187.878 160.564 189.012 160.564C191.182 160.564 192.996 158.752 192.996 156.58C192.996 154.408 191.182 152.596 189.012 152.596Z" fill="#F1AC56"/>
<path d="M202.826 146.123C202.098 144.797 200.945 144.06 199.579 143.524C198.474 143.088 196.97 142.94 195.849 143.368C194.007 144.068 192.641 145.495 192.641 147.58C192.641 148.42 192.87 149.147 193.255 149.767C193.342 150.751 193.679 151.383 194.281 152.159C194.674 152.667 195.309 153.037 195.895 153.3C197.125 153.857 198.515 154.403 199.873 153.883C201.531 153.251 202.546 152.177 203.157 150.527C203.693 149.075 203.569 147.477 202.826 146.123Z" fill="#F1AC56"/>
<path d="M110.905 173.777C122.83 173.777 160.683 171.729 169.499 166.093C167.942 127.671 164.355 86.7347 158.609 69.5267C150.887 46.3987 132.918 31.3614 110.905 31.3614C88.8899 31.3614 70.9235 46.3987 63.1995 69.5267C57.4547 86.7347 53.8662 127.671 52.3115 166.093C61.1266 171.729 98.9779 173.777 110.905 173.777Z" fill="#CD5C29"/>
<path d="M110.905 149.804C87.4806 149.804 66.9339 137.427 55.309 118.817C53.9547 133.76 52.9574 150.14 52.3115 166.093C61.1266 171.729 98.9779 173.777 110.905 173.777C122.83 173.777 160.683 171.729 169.499 166.093C168.853 150.14 167.855 133.76 166.499 118.817C154.877 137.427 134.33 149.804 110.905 149.804Z" fill="#BA4927"/>
<path d="M59.6449 167.445C61.111 131.209 64.4965 92.6014 69.9131 76.3734C77.197 54.5614 94.1419 40.3774 114.905 40.3774C135.669 40.3774 152.611 54.5614 159.895 76.3734C160.89 79.3481 160.111 74.0201 158.609 69.5267C150.887 46.3987 132.918 31.3614 110.905 31.3614C88.8899 31.3614 70.9235 46.3987 63.1995 69.5267C57.4547 86.7347 53.8662 127.671 52.3115 166.093C55.4027 168.071 61.6814 168.749 59.6449 167.445Z" fill="#E6894A"/>
<path d="M54.3588 164.972C64.0307 169.763 98.281 171.803 110.905 171.803C123.53 171.803 157.778 169.763 167.45 164.972C165.59 120.141 161.585 84.7441 156.71 70.1454C149.129 47.4414 131.577 33.3374 110.905 33.3374C90.2343 33.3374 72.6818 47.4414 65.101 70.1454C60.226 84.7441 56.2208 120.141 54.3588 164.972ZM110.905 175.755C103.574 175.755 61.4318 174.279 51.226 167.753C50.6323 167.373 50.2859 166.712 50.3119 166.015C51.2026 144.047 54.0542 90.6121 61.3015 68.9081C69.4422 44.5294 88.4476 29.3854 110.905 29.3854C133.361 29.3854 152.369 44.5294 160.51 68.9081C167.757 90.6121 170.609 144.047 171.497 166.015C171.525 166.712 171.18 167.373 170.585 167.753C160.377 174.279 118.234 175.755 110.905 175.755Z" fill="#100F0D"/>
<path d="M69.5513 85.0906C76.7179 83.444 94.7181 78.1747 100.614 70.5414C99.2181 65.1654 96.3847 60.72 92.0514 57.3733C93.8847 60.0613 94.3981 61.516 95.3847 63.8493C90.1661 67.54 79.1634 70.3266 68.0513 70.7653C67.5513 75.0453 68.0513 80.316 69.5513 85.0906Z" fill="#100F0D"/>
<path d="M94.6939 90.1959C94.6939 96.4839 89.5352 101.58 83.1712 101.58C76.8062 101.58 71.6475 96.4839 71.6475 90.1959C71.6475 83.9079 76.8062 78.8119 83.1712 78.8119C89.5352 78.8119 94.6939 83.9079 94.6939 90.1959Z" fill="#100F0D"/>
<path d="M91.4859 90.1962C91.4859 94.7322 87.7619 98.4109 83.1712 98.4109C78.5792 98.4109 74.8584 94.7322 74.8584 90.1962C74.8584 85.6589 78.5792 81.9816 83.1712 81.9816C87.7619 81.9816 91.4859 85.6589 91.4859 90.1962Z" fill="white"/>
<path d="M152.26 85.0906C145.093 83.444 127.093 78.1747 121.194 70.5414C122.593 65.1654 125.426 60.72 129.757 57.3733C127.926 60.0613 127.413 61.516 126.426 63.8493C131.645 67.54 142.648 70.3266 153.757 70.7653C154.26 75.0453 153.76 80.316 152.26 85.0906Z" fill="#100F0D"/>
<path d="M127.117 90.1959C127.117 96.4839 132.275 101.58 138.639 101.58C145.002 101.58 150.161 96.4839 150.161 90.1959C150.161 83.9079 145.002 78.8119 138.639 78.8119C132.275 78.8119 127.117 83.9079 127.117 90.1959Z" fill="#100F0D"/>
<path d="M130.325 90.1962C130.325 94.7322 134.046 98.4109 138.639 98.4109C143.231 98.4109 146.953 94.7322 146.953 90.1962C146.953 85.6589 143.231 81.9816 138.639 81.9816C134.046 81.9816 130.325 85.6589 130.325 90.1962Z" fill="white"/>
<path d="M110.91 142.401C122.122 142.401 131.122 146.011 137.284 154.085C129.95 152.768 116.95 152.439 110.91 152.439C104.856 152.439 91.8558 152.768 84.5225 154.085C90.6971 146.011 99.6971 142.401 110.91 142.401Z" fill="#EE252E"/>
<path d="M128.284 108.308C130.161 116.287 134.95 142.888 137.284 154.085C131.122 146.011 122.122 142.401 110.91 142.401C99.6971 142.401 90.6971 146.011 84.5225 154.085C86.8558 142.888 91.3878 116.523 93.5225 108.308L93.6971 108.176C96.8958 112.3 103.402 115.119 110.91 115.119C118.402 115.119 124.91 112.3 128.122 108.189L128.284 108.308Z" fill="#461C1E"/>
<path d="M87.3382 152.333C92.9995 146.396 100.905 143.381 110.905 143.381C120.902 143.381 128.812 146.396 134.47 152.333C127.017 151.391 116.522 151.121 110.905 151.121C105.286 151.121 94.7928 151.391 87.3382 152.333ZM94.0768 110.571C97.9128 114.225 104.14 116.431 110.905 116.431C117.669 116.431 123.896 114.225 127.734 110.572C129.08 117.355 132.872 140.449 135.054 150.103C129.088 144.336 120.992 141.407 110.905 141.407C100.817 141.407 92.7235 144.336 86.7542 150.103C88.6262 140.597 92.4675 117.355 94.0768 110.571ZM138.59 153.82C136.041 141.587 131.481 115.337 129.522 107.819C129.456 107.551 129.232 107.377 129.014 107.235L128.932 107.141C128.346 106.695 127.51 106.804 127.062 107.38C123.978 111.339 117.789 113.797 110.905 113.797C104.017 113.797 97.8248 111.336 94.7435 107.375C94.2955 106.8 93.4595 106.689 92.8742 107.133L92.7675 107.253C92.5649 107.395 92.3555 107.564 92.2862 107.819C90.1862 115.457 85.7729 141.572 83.2182 153.82C83.1289 154.249 83.2622 154.693 83.5715 155.007C83.8795 155.32 84.3248 155.464 84.7622 155.38C91.9048 154.097 104.557 153.757 110.905 153.757C117.254 153.757 129.902 154.097 137.046 155.38L137.286 155.403C137.64 155.403 137.986 155.263 138.238 155.007C138.549 154.693 138.681 154.249 138.59 153.82Z" fill="#100F0D"/>
<path d="M119.336 113.853L119.348 113.907C119.348 118.096 115.574 125.183 110.908 125.183C106.241 125.183 102.456 118.096 102.456 113.907L102.481 113.853C105.028 114.657 107.896 115.119 110.908 115.119C113.937 115.119 116.789 114.657 119.336 113.853Z" fill="#F8F8F8"/>
<path d="M110.908 89.6427C121.574 89.6427 130.241 95.3454 130.241 102.38C130.241 107.427 125.789 111.785 119.336 113.853C116.789 114.657 113.937 115.119 110.908 115.119C107.896 115.119 105.028 114.657 102.481 113.853V113.841C96.0276 111.785 91.5742 107.427 91.5742 102.38C91.5742 95.3454 100.229 89.6427 110.908 89.6427Z" fill="#FDEAB3"/>
<path d="M119.681 97.7362C119.681 100.828 115.751 104.796 110.905 104.796C106.057 104.796 102.126 100.828 102.126 97.7362C102.126 94.6456 106.057 93.5989 110.905 93.5989C115.751 93.5989 119.681 94.6456 119.681 97.7362Z" fill="#100F0D"/>
<path d="M110.653 96.7642C110.776 97.5749 109.672 98.4109 108.184 98.6322C106.697 98.8535 105.393 98.3762 105.268 97.5682C105.145 96.7589 106.249 95.9229 107.736 95.7015C109.224 95.4802 110.53 95.9562 110.653 96.7642Z" fill="white"/>
<path d="M110.905 113.797C100.978 113.797 92.9049 108.676 92.9049 102.38C92.9049 96.0854 100.978 90.9627 110.905 90.9627C120.83 90.9627 128.905 96.0854 128.905 102.38C128.905 108.676 120.83 113.797 110.905 113.797ZM111.905 123.703V116.397C113.968 116.329 115.953 116.059 117.814 115.607C117.122 118.884 114.669 122.881 111.905 123.703ZM103.994 115.607C105.858 116.059 107.841 116.329 109.905 116.397V123.703C107.14 122.881 104.686 118.884 103.994 115.607ZM131.572 102.38C131.572 94.632 122.301 88.3281 110.905 88.3281C99.5103 88.3281 90.2383 94.632 90.2383 102.38C90.2383 107.737 94.6716 112.4 101.174 114.769C101.634 119.315 105.514 126.503 110.905 126.503C116.293 126.503 120.177 119.315 120.634 114.769C127.137 112.4 131.572 107.737 131.572 102.38Z" fill="#100F0D"/>
<path d="M97.9995 103.607H87.4782C87.1089 103.607 86.8115 103.313 86.8115 102.948C86.8115 102.585 87.1089 102.291 87.4782 102.291H97.9995C98.3689 102.291 98.6662 102.585 98.6662 102.948C98.6662 103.313 98.3689 103.607 97.9995 103.607Z" fill="#100F0D"/>
<path d="M88.1139 111.556C87.8739 111.556 87.6419 111.428 87.5219 111.204C87.3499 110.881 87.4779 110.484 87.8032 110.316L97.6886 105.181C98.0139 105.013 98.4179 105.137 98.5899 105.459C98.7619 105.78 98.6339 106.179 98.3086 106.348L88.4232 111.481L88.1139 111.556Z" fill="#100F0D"/>
<path d="M97.9992 101.105L97.6886 101.029L87.8032 95.8959C87.4779 95.7279 87.3499 95.3293 87.5219 95.008C87.6939 94.6866 88.1006 94.5639 88.4232 94.7306L98.3086 99.8639C98.6339 100.033 98.7619 100.431 98.5899 100.753C98.4699 100.977 98.2379 101.105 97.9992 101.105Z" fill="#100F0D"/>
<path d="M134.333 103.607H123.809C123.442 103.607 123.142 103.313 123.142 102.948C123.142 102.585 123.442 102.291 123.809 102.291H134.333C134.699 102.291 134.999 102.585 134.999 102.948C134.999 103.313 134.699 103.607 134.333 103.607Z" fill="#100F0D"/>
<path d="M133.697 111.556L133.387 111.481L123.499 106.348C123.174 106.179 123.049 105.78 123.221 105.459C123.393 105.137 123.795 105.013 124.119 105.181L134.007 110.316C134.333 110.484 134.457 110.881 134.286 111.204C134.169 111.428 133.937 111.556 133.697 111.556Z" fill="#100F0D"/>
<path d="M123.809 101.105C123.569 101.105 123.338 100.977 123.221 100.753C123.049 100.431 123.174 100.033 123.499 99.8639L133.387 94.7306C133.71 94.5639 134.117 94.6866 134.286 95.008C134.457 95.3293 134.333 95.7279 134.007 95.8959L124.119 101.029L123.809 101.105Z" fill="#100F0D"/>
<path d="M215.932 146.099C219.41 147.219 222.105 150.58 221.785 155.353C221.29 162.9 216.332 165.153 211.225 164.42C211.225 165.779 210.917 167.233 210.237 168.687C207.878 173.793 199.57 175.807 191.57 172.247C189.598 182.847 175.57 183.432 170.118 180.005C167.37 186.233 158.265 188.02 153.398 184.06C151.304 190.26 140.105 191.5 136.172 185.247C132.517 190.58 126.29 193.247 116.172 192.247C110.598 191.687 107.172 189.833 105.144 187.54C96.4515 195.82 81.7968 190.407 79.5048 183.247C77.1842 186.407 71.8508 188.407 65.344 187.247C61.7035 186.593 58.0368 184.127 56.3847 180.54C51.0774 186.913 38.1175 183.672 37.1842 175.913C30.9576 178.193 19.5046 177.58 15.8508 172.087C14.5707 170.167 13.8379 168.3 13.5306 166.54C5.47684 167.153 0.304044 163.567 0.0107102 157.58C-0.228756 152.727 3.58364 148.7 7.81018 147.913C9.51751 147.58 11.304 147.793 12.904 148.687C13.1175 145.58 16.6644 140.473 23.344 140.473C27.7842 140.473 32.6774 142.913 33.344 149.14C39.1306 138.913 51.5306 143.432 53.1712 149.672C58.3978 147.672 65.917 151.047 66.744 156.527C69.6644 153.073 74.7311 152.099 78.5169 152.407C82.3035 152.727 85.7715 154.58 87.8248 156.98C92.0902 151.46 103.477 153.672 104.144 159.552C106.637 156.207 110.718 153.94 115.118 153.58C120.97 153.099 126.345 155.445 129.665 158.633C131.184 152.753 136.332 150.513 140.345 150.087C145.012 149.58 151.85 151.58 153.785 158.473C154.678 153.74 162.172 151.58 164.904 156.687C165.678 151.42 169.237 147.633 175.345 146.247C178.904 145.432 182.118 145.765 184.558 147.3C185.957 143.847 189.652 140.552 194.012 140.247C199.612 139.86 206.012 141.74 207.57 147.807C210.144 145.687 213.278 145.233 215.932 146.099Z" fill="#E88D3A"/>
<path d="M216.55 146.357C215.978 153.328 211.318 155.421 206.513 154.732C206.513 156.028 206.222 157.413 205.574 158.797C203.325 163.664 195.408 165.584 187.785 162.191C185.902 172.293 172.534 172.852 167.338 169.587C164.719 175.521 156.042 177.224 151.402 173.448C149.406 179.357 138.736 180.54 134.985 174.58C131.502 179.663 125.569 182.205 115.924 181.252C110.613 180.717 107.346 178.951 105.414 176.765C97.1288 184.656 83.1635 179.497 80.9782 172.675C78.7675 175.685 73.6842 177.592 67.4836 176.485C64.0134 175.864 60.5186 173.513 58.9446 170.095C53.8858 176.168 41.5358 173.081 40.6451 165.685C34.7102 167.857 23.7946 167.273 20.3128 162.037C19.0931 160.208 18.3935 158.429 18.1019 156.753C10.6972 157.316 5.86123 154.149 5.2779 148.801C2.18417 150.407 -0.179301 153.729 0.010699 157.58C0.304032 163.567 5.47683 167.153 13.5306 166.54C13.8379 168.3 14.5707 170.167 15.8508 172.087C19.5046 177.58 30.9576 178.193 37.1842 175.913C38.1175 183.672 51.0774 186.913 56.3847 180.54C58.0368 184.127 61.7035 186.593 65.344 187.247C71.8508 188.407 77.1842 186.407 79.5048 183.247C81.7968 190.407 96.4515 195.82 105.144 187.54C107.172 189.833 110.598 191.687 116.172 192.247C126.29 193.247 132.517 190.58 136.171 185.247C140.105 191.5 151.303 190.26 153.398 184.06C158.265 188.02 167.37 186.233 170.118 180.005C175.57 183.432 189.598 182.847 191.57 172.247C199.57 175.807 207.878 173.793 210.237 168.687C210.917 167.233 211.225 165.779 211.225 164.42C216.331 165.153 221.29 162.9 221.785 155.353C222.085 150.873 219.72 147.661 216.55 146.357Z" fill="#D87639"/>
<path d="M29.8037 150.649L29.8281 150.667L29.8844 150.707L29.8037 150.649Z" fill="#F1AC56"/>
<path d="M30.3282 151.053C30.1615 150.925 29.9938 150.796 29.8282 150.667C29.2891 150.185 28.6475 149.867 27.973 149.736C28.223 149.104 28.3533 148.363 28.2725 147.691C28.0705 146.005 27.4574 144.899 26.073 143.888C24.9913 143.099 23.5027 143.185 22.2657 143.38C21.1839 143.552 20.1486 144.341 19.3751 145.063C17.5538 146.761 16.4793 149.667 17.835 151.961C18.9219 153.8 21.3022 154.511 23.3429 154.075C23.2881 154.665 23.3533 155.263 23.5913 155.839C23.9391 156.675 24.0653 156.897 24.6433 157.615C25.1877 158.289 26.1918 158.56 27.0105 158.595C27.2762 158.605 27.9314 158.785 27.0954 158.565C28.6199 158.967 30.1615 158.313 30.9834 156.984C31.5443 156.076 31.5277 155.069 31.5642 154.052C31.5902 153.308 31.3949 152.495 30.9923 151.865C30.8246 151.544 30.6033 151.273 30.3282 151.053Z" fill="#F1AC56"/>
<path d="M55.1816 158.855L54.9196 158.661C54.568 158.237 54.1373 157.888 53.6399 157.649C53.2155 156.336 52.3431 155.196 51.0601 154.393C50.244 153.883 49.1305 153.612 48.1149 153.707C48.1383 153.455 48.1581 153.201 48.1409 152.957C48.0393 151.521 47.5341 150.365 46.5811 149.289C45.0081 147.515 41.9456 147.615 40.3545 149.259C39.1841 150.467 39.0472 152.093 39.6477 153.419C39.3716 154.587 39.7972 155.869 40.5992 156.753C41.2893 157.516 42.5341 157.868 43.5488 157.801C43.0305 159.011 42.9264 160.425 43.2764 161.643C43.968 164.04 46.1555 165.02 48.3691 164.896C49.1773 165.031 50.0133 165.04 50.8883 165.019L51.0159 165.073H51.0237C52.4169 165.647 53.9707 165.516 55.1816 164.305C56.5461 162.94 56.8221 160.172 55.1816 158.855Z" fill="#F1AC56"/>
<path d="M74.7414 157.48C73.434 157.78 72.1174 158.4 71.0523 159.279C70.7283 159.071 70.3752 158.896 69.9794 158.735C71.5564 159.377 70.6059 158.959 70.2206 158.765C69.2215 158.265 68.5382 158.117 67.4378 158.001C66.5914 157.913 65.534 158.225 64.8206 158.667C63.9715 159.193 63.0174 160.16 62.8674 161.18C62.7048 162.287 62.7034 162.46 62.869 163.564C63.0627 164.868 64.4116 165.975 65.607 166.303C65.9835 166.407 66.3856 166.443 66.7882 166.425L66.9351 166.48C67.8023 166.707 68.6018 166.603 69.3934 166.352C69.6643 166.888 69.9976 167.391 70.4116 167.828C70.9143 169.017 71.8976 170.029 73.3622 170.515C75.9872 171.384 79.326 170.915 81.522 169.276C84.838 166.808 86.0474 162.517 83.106 159.219C81.1474 157.025 77.396 156.871 74.7414 157.48Z" fill="#F1AC56"/>
<path d="M58.6787 152.989C57.1459 152.989 55.8662 154.268 55.8662 155.803C55.8662 157.336 57.1459 158.615 58.6787 158.615C60.211 158.615 61.4913 157.336 61.4913 155.803C61.4913 154.268 60.211 152.989 58.6787 152.989Z" fill="#F1AC56"/>
<path d="M131.567 167.028C130.177 167.028 129.014 168.188 129.014 169.58C129.014 170.972 130.177 172.132 131.567 172.132C132.957 172.132 134.119 170.972 134.119 169.58C134.119 168.188 132.957 167.028 131.567 167.028Z" fill="#F1AC56"/>
<path d="M33.5366 159.055L33.4391 159.128C32.3793 159.424 31.697 160.837 32.6694 161.811C33.6449 162.787 35.0667 162.097 35.3569 161.035L35.4246 160.943C36.2334 159.849 34.6293 158.244 33.5366 159.055Z" fill="#F1AC56"/>
<path d="M99.4633 162.953C98.4353 162.497 97.654 162.243 96.4993 162.216C95.4566 162.193 94.39 162.62 93.4886 163.087C91.034 164.357 89.7926 167.743 91.33 170.151C91.798 170.885 92.4326 171.464 93.1766 171.836C93.766 172.47 94.5273 172.94 95.3686 173.12C96.594 173.38 97.6606 173.169 98.778 172.617L98.9646 172.496C99.8233 171.825 99.9273 171.751 99.278 172.268C99.6633 172.029 100.018 171.729 100.354 171.424C101.551 170.331 102.162 169.095 102.315 167.471C102.489 165.653 101.069 163.664 99.4633 162.953Z" fill="#F1AC56"/>
<path d="M125.972 162.505C124.273 160.748 121.889 159.928 119.512 159.679C116.512 159.368 114.05 160.221 112.269 162.745C112.057 163.047 111.878 163.356 111.72 163.669C110.402 163.072 108.833 162.984 107.402 163.232C107.089 163.287 106.793 163.387 106.513 163.516C104.557 164.204 103.232 166.361 103.468 168.417C103.729 170.673 105.101 172.571 107.413 173.084C109.4 173.524 111.302 173.016 112.854 171.732L112.888 171.699C113.892 172.805 115.245 173.639 116.852 173.995C117.26 174.087 117.665 174.132 118.069 174.156C118.956 174.32 119.861 174.276 120.701 174.021C120.836 174.032 120.964 174.045 121.1 174.052C126.776 174.292 129.769 166.431 125.972 162.505Z" fill="#F1AC56"/>
<path d="M147.533 158.677C147.506 158.468 147.466 158.26 147.401 158.055C147.042 156.972 145.977 155.884 144.725 156.019C143.361 156.164 142.179 156.663 141.445 157.907C141.045 158.584 140.954 159.313 141.053 160.005C138.825 160.137 136.981 161.835 136.91 164.117C136.851 164.308 136.801 164.497 136.765 164.685C136.431 166.373 137.221 168.456 139.117 168.825C140.339 169.065 141.421 169.167 142.647 168.932C144.906 168.503 146.27 166.436 146.355 164.247C146.379 163.661 146.237 163.101 145.995 162.587C147.014 161.98 147.69 160.831 147.625 159.664L147.635 159.584C147.625 159.204 147.505 158.363 147.533 158.677Z" fill="#F1AC56"/>
<path d="M189.012 152.596C188.14 152.596 187.336 152.896 186.674 153.384L186.573 153.129C186.445 152.855 186.137 151.998 186.526 153.172C186.338 152.602 186.058 151.956 185.713 151.442C184.106 149.038 181.6 148.042 178.769 148.47C180.416 148.222 178.533 148.432 177.982 148.617C177.145 148.896 176.39 149.289 175.758 149.92C174.553 151.125 174.013 153.004 174.46 154.659L174.402 155.007C173.758 154.972 173.068 155.041 172.586 155.216C171.43 155.637 170.702 156.251 169.974 157.123C169.561 156.989 169.13 156.898 168.678 156.898C166.57 156.898 164.784 158.462 164.409 160.472C163.992 160.09 163.524 159.76 163.081 159.521C161.68 158.767 160.128 158.532 158.578 158.927C156.89 159.356 155.478 161.084 155.546 162.862L155.493 162.928C154.905 163.756 154.945 164.917 155.149 165.849C155.376 166.888 156.262 167.803 157.138 168.355C158.154 168.996 159.492 169.243 160.677 169.123C162.044 168.987 163.686 168.64 164.646 167.547C165.237 166.873 165.717 166.201 165.929 165.312C165.984 165.081 166.002 164.865 166.021 164.648C166.762 165.231 167.68 165.596 168.678 165.596C169.357 165.596 169.996 165.419 170.573 165.131C170.804 165.298 171.049 165.44 171.306 165.56C171.721 166.247 172.509 166.964 173.325 167.096C174.5 167.289 175.461 167.5 176.664 167.26C178.432 166.907 179.549 165.193 180.128 163.625C180.349 163.028 180.421 162.432 180.386 161.857C181.221 161.855 182.045 161.751 182.741 161.595C184.026 161.307 185.274 160.415 186.121 159.285C186.852 160.065 187.878 160.564 189.012 160.564C191.182 160.564 192.996 158.752 192.996 156.58C192.996 154.408 191.182 152.596 189.012 152.596Z" fill="#F1AC56"/>
<path d="M202.826 146.123C202.098 144.797 200.945 144.06 199.579 143.524C198.474 143.088 196.97 142.94 195.849 143.368C194.007 144.068 192.641 145.495 192.641 147.58C192.641 148.42 192.87 149.147 193.255 149.767C193.342 150.751 193.679 151.383 194.281 152.159C194.674 152.667 195.309 153.037 195.895 153.3C197.125 153.857 198.515 154.403 199.873 153.883C201.531 153.251 202.546 152.177 203.157 150.527C203.693 149.075 203.569 147.477 202.826 146.123Z" fill="#F1AC56"/>
<path d="M83.8034 32.5936C82.4434 32.5936 78.9074 30.2055 77.3925 29.1348C75.4794 30.3082 71.7633 32.5042 70.757 32.5042C70.4862 32.5042 70.2373 32.3762 70.0731 32.1549C69.5679 31.4722 69.9654 28.9576 71.2545 24.6776C69.1201 23.0976 65.9731 20.5349 65.9731 19.1656C65.9731 18.2482 66.7919 17.3989 72.7335 17.3989C73.0887 17.3989 73.395 17.4028 73.6294 17.4068C76.1581 10.6682 77.0054 10.6682 77.4185 10.6682C77.831 10.6682 78.6794 10.6682 81.2154 17.4269C88.8634 17.6042 88.8634 18.6162 88.8634 19.1656C88.8634 19.9802 87.0847 21.8268 83.5741 24.6575C85.5474 31.3122 84.7994 32.0602 84.5514 32.3096C84.4221 32.4376 84.1874 32.5922 83.8034 32.5936Z" fill="#F8ED1C"/>
<path d="M83.1569 24.1387C82.9462 24.3094 82.8582 24.5893 82.9356 24.848C84.7436 30.9453 84.1529 31.7641 84.0796 31.8374C84.0222 31.8947 83.9262 31.9267 83.8022 31.9267C83.0102 31.9254 80.6449 30.6147 77.7765 28.5907C77.6618 28.508 77.528 28.468 77.3926 28.468C77.2713 28.468 77.1514 28.5 77.0436 28.5667C72.8337 31.1494 71.1113 31.8374 70.7572 31.8374L70.6113 31.7614C70.555 31.6747 70.1217 30.7507 71.8926 24.8707C71.9744 24.6001 71.8769 24.3093 71.6514 24.1413C67.9525 21.404 66.64 19.7507 66.64 19.1654C66.64 18.7547 67.4317 18.0654 72.7337 18.0654C73.0853 18.0654 73.3874 18.0694 73.6176 18.0734C73.8874 18.0534 74.1541 17.904 74.253 17.6413C76.4509 11.7867 77.2832 11.364 77.4656 11.3347C77.5541 11.364 78.3889 11.7881 80.5916 17.6601C80.6862 17.9161 80.9276 18.0867 81.1996 18.0934C87.5489 18.2414 88.1476 18.9814 88.1969 19.1601C88.1822 19.3241 87.8676 20.3387 83.1569 24.1387ZM89.5302 19.1654C89.5302 17.7627 88.2649 16.9574 81.6796 16.7707C79.3022 10.5187 78.3422 10.0013 77.4186 10.0013C76.4978 10.0013 75.5384 10.5174 73.1713 16.7334C73.0358 16.7334 72.89 16.7321 72.7337 16.7321C67.3197 16.7321 65.3066 17.3921 65.3066 19.1654C65.3066 19.6347 65.3066 21.0387 70.4822 24.9321C68.8326 30.5241 69.0749 31.9267 69.5384 32.552C69.8285 32.9453 70.2738 33.1707 70.7572 33.1707C71.0785 33.1707 72.0421 33.1706 77.3676 29.9306C79.6276 31.5053 82.4502 33.2601 83.8036 33.2601H83.8062C84.4169 33.2574 84.8049 32.9973 85.0222 32.78C85.4596 32.3427 86.2662 31.5387 84.3396 24.896C88.9036 21.1787 89.5302 19.9121 89.5302 19.1654Z" fill="#C7901A"/>
<path d="M77.4272 13.6815C76.9028 13.6815 75.7205 17.2509 75.2214 18.6629C73.559 19.0789 69.5105 18.7868 69.1657 19.5362C68.8116 20.3055 73.7058 21.8482 76.1981 22.0295C80.526 22.3442 85.862 20.7375 85.746 19.6482C85.6886 19.1122 80.934 19.0402 79.646 18.7868C79.022 16.6295 78.1746 13.6815 77.4272 13.6815Z" fill="white"/>
<path d="M150.915 54.3709C149.554 54.3709 146.019 51.9829 144.503 50.9123C142.59 52.0856 138.874 54.2816 137.867 54.2816C137.597 54.2816 137.347 54.1536 137.183 53.9322C136.679 53.2496 137.075 50.7349 138.365 46.4549C136.231 44.8749 133.083 42.3123 133.083 40.9429C133.083 40.0256 133.902 39.1763 139.845 39.1763C140.199 39.1763 140.506 39.1803 140.739 39.1843C143.269 32.4456 144.117 32.4456 144.529 32.4456C144.942 32.4456 145.79 32.4456 148.327 39.2043C155.975 39.3816 155.975 40.3936 155.975 40.9429C155.975 41.7576 154.197 43.6042 150.686 46.4349C152.658 53.0896 151.91 53.8376 151.663 54.0869C151.533 54.2149 151.298 54.3696 150.915 54.3709Z" fill="#F8ED1C"/>
<path d="M150.268 45.9161C150.057 46.0867 149.97 46.3668 150.046 46.6254C151.856 52.7228 151.265 53.5414 151.192 53.6148C151.134 53.6721 151.038 53.7041 150.913 53.7041C150.122 53.7027 147.757 52.3921 144.888 50.3681C144.773 50.2854 144.638 50.2454 144.504 50.2454C144.382 50.2454 144.262 50.2775 144.154 50.3441C139.945 52.9268 138.222 53.6148 137.868 53.6148L137.722 53.5388C137.666 53.4521 137.233 52.5281 139.004 46.6481C139.085 46.3774 138.988 46.0867 138.762 45.9187C135.064 43.1814 133.75 41.5281 133.75 40.9428C133.75 40.5321 134.542 39.8428 139.845 39.8428C140.196 39.8428 140.498 39.8468 140.729 39.8508C140.998 39.8308 141.265 39.6814 141.364 39.4187C143.562 33.5641 144.394 33.1414 144.576 33.1121C144.665 33.1414 145.5 33.5655 147.702 39.4375C147.798 39.6935 148.038 39.8641 148.312 39.8708C154.661 40.0188 155.26 40.7587 155.309 40.9374C155.293 41.1014 154.978 42.1161 150.268 45.9161ZM156.642 40.9428C156.642 39.5401 155.377 38.7347 148.79 38.548C146.413 32.296 145.453 31.7788 144.529 31.7788C143.609 31.7788 142.649 32.2948 140.282 38.5108C140.146 38.5108 140.001 38.5095 139.845 38.5095C134.43 38.5095 132.417 39.1694 132.417 40.9428C132.417 41.4121 132.417 42.8161 137.593 46.7094C135.944 52.3014 136.185 53.7041 136.649 54.3294C136.94 54.7227 137.385 54.9481 137.868 54.9481C138.189 54.9481 139.153 54.9481 144.478 51.7081C146.738 53.2828 149.562 55.0374 150.916 55.0374H150.918C151.528 55.0347 151.916 54.7747 152.134 54.5574C152.572 54.1201 153.377 53.3161 151.45 46.6734C156.014 42.9561 156.642 41.6894 156.642 40.9428Z" fill="#C7901A"/>
<path d="M144.538 35.4588C144.013 35.4588 142.832 39.0282 142.333 40.4402C140.67 40.8562 136.622 40.5642 136.277 41.3135C135.922 42.0829 140.817 43.6255 143.309 43.8069C147.637 44.1215 152.973 42.5149 152.858 41.4256C152.801 40.8896 148.046 40.8175 146.757 40.5642C146.134 38.4068 145.286 35.4588 144.538 35.4588Z" fill="white"/>
<path d="M137.805 22.5921C136.445 22.5921 132.909 20.2042 131.394 19.1335C129.481 20.3068 125.765 22.5028 124.758 22.5028C124.487 22.5028 124.238 22.3748 124.074 22.1534C123.569 21.4708 123.966 18.9562 125.255 14.6762C123.122 13.0962 119.974 10.5334 119.974 9.16411C119.974 8.24677 120.793 7.39744 126.735 7.39744C127.09 7.39744 127.397 7.40151 127.63 7.40551C130.159 0.666847 131.007 0.666843 131.419 0.666843C131.833 0.666843 132.681 0.666771 135.217 7.42544C142.865 7.60277 142.865 8.61477 142.865 9.16411C142.865 9.97878 141.086 11.8255 137.575 14.6562C139.549 21.3108 138.801 22.0588 138.553 22.3081C138.423 22.4361 138.189 22.5908 137.805 22.5921Z" fill="#F8ED1C"/>
<path d="M137.158 14.1374C136.948 14.308 136.86 14.588 136.937 14.8466C138.745 20.944 138.154 21.7626 138.081 21.8359C138.024 21.8933 137.928 21.9253 137.804 21.9253C137.012 21.9239 134.646 20.6133 131.778 18.5893C131.664 18.5067 131.529 18.4667 131.394 18.4667C131.273 18.4667 131.153 18.4987 131.045 18.5654C126.836 21.148 125.113 21.8359 124.758 21.8359L124.613 21.76C124.557 21.6734 124.124 20.7493 125.894 14.8693C125.976 14.5986 125.878 14.308 125.653 14.14C121.954 11.4027 120.641 9.74928 120.641 9.16395C120.641 8.75328 121.433 8.06395 126.736 8.06395C127.086 8.06395 127.389 8.06802 127.62 8.07202C127.889 8.05202 128.156 7.90265 128.254 7.63999C130.453 1.78532 131.285 1.36268 131.466 1.33335C131.556 1.36268 132.39 1.78661 134.593 7.65861C134.688 7.91461 134.929 8.08527 135.201 8.09194C141.55 8.23994 142.149 8.97994 142.198 9.15861C142.184 9.32261 141.869 10.3374 137.158 14.1374ZM143.532 9.16395C143.532 7.76128 142.266 6.95595 135.681 6.76928C133.304 0.517284 132.344 1.33514e-05 131.42 1.33514e-05C130.5 1.33514e-05 129.54 0.516045 127.173 6.73204C127.037 6.73204 126.892 6.73061 126.736 6.73061C121.321 6.73061 119.308 7.39061 119.308 9.16395C119.308 9.63328 119.308 11.0373 124.484 14.9306C122.834 20.5226 123.076 21.9253 123.54 22.5507C123.83 22.944 124.276 23.1693 124.758 23.1693C125.08 23.1693 126.044 23.1693 131.369 19.9293C133.629 21.504 136.452 23.2586 137.805 23.2586H137.808C138.418 23.2559 138.806 22.996 139.024 22.7787C139.461 22.3413 140.268 21.5373 138.341 14.8947C142.905 11.1773 143.532 9.91061 143.532 9.16395Z" fill="#C7901A"/>
<path d="M131.429 3.68001C130.904 3.68001 129.722 7.24939 129.224 8.66139C127.561 9.07739 123.513 8.78536 123.168 9.5347C122.813 10.304 127.708 11.8467 130.2 12.0281C134.528 12.3427 139.864 10.736 139.748 9.64668C139.69 9.11068 134.936 9.03868 133.648 8.78535C133.024 6.62801 132.177 3.68001 131.429 3.68001Z" fill="white"/>
<path d="M97.8033 65.7029C96.4433 65.7029 92.9073 63.3149 91.3927 62.2443C89.4793 63.4176 85.7633 65.6136 84.7566 65.6136C84.486 65.6136 84.2366 65.4856 84.0726 65.2643C83.5686 64.5816 83.9647 62.0669 85.254 57.7869C83.1207 56.2069 79.9727 53.6443 79.9727 52.2749C79.9727 51.3576 80.7913 50.5083 86.734 50.5083C87.0887 50.5083 87.3953 50.5122 87.6287 50.5162C90.158 43.7776 91.006 43.7776 91.418 43.7776C91.8313 43.7776 92.6793 43.7776 95.2153 50.5363C102.863 50.7136 102.863 51.7256 102.863 52.2749C102.863 53.0896 101.085 54.9363 97.574 57.7669C99.5473 64.4216 98.7993 65.1696 98.5513 65.4189C98.422 65.5469 98.1873 65.7016 97.8033 65.7029Z" fill="#F8ED1C"/>
<path d="M97.1568 57.2481C96.9461 57.4188 96.8582 57.6987 96.9355 57.9574C98.7435 64.0547 98.1528 64.8734 98.0795 64.9467C98.0222 65.0041 97.9262 65.0361 97.8022 65.0361C97.0102 65.0348 94.6448 63.7241 91.7768 61.7001C91.6621 61.6174 91.5275 61.5775 91.3928 61.5775C91.2715 61.5775 91.1515 61.6094 91.0435 61.6761C86.8341 64.2588 85.1115 64.9467 84.7568 64.9467L84.6115 64.8707C84.5555 64.7841 84.1221 63.8601 85.8928 57.9801C85.9741 57.7094 85.8768 57.4188 85.6515 57.2508C81.9528 54.5134 80.6395 52.8601 80.6395 52.2748C80.6395 51.8641 81.4315 51.1748 86.7342 51.1748C87.0848 51.1748 87.3875 51.1787 87.6182 51.1827C87.8875 51.1627 88.1542 51.0134 88.2528 50.7508C90.4515 44.8961 91.2835 44.4735 91.4648 44.4441C91.5542 44.4735 92.3888 44.8974 94.5915 50.7694C94.6861 51.0254 94.9275 51.1961 95.1995 51.2028C101.549 51.3508 102.147 52.0908 102.197 52.2694C102.182 52.4334 101.867 53.4481 97.1568 57.2481ZM103.53 52.2748C103.53 50.8721 102.265 50.0667 95.6795 49.8801C93.3022 43.6281 92.3422 43.1108 91.4182 43.1108C90.4982 43.1108 89.5381 43.6268 87.1715 49.8428C87.0355 49.8428 86.8902 49.8414 86.7342 49.8414C81.3195 49.8414 79.3062 50.5015 79.3062 52.2748C79.3062 52.7441 79.3062 54.1481 84.4822 58.0415C82.8328 63.6335 83.0741 65.0361 83.5381 65.6614C83.8288 66.0548 84.2741 66.2801 84.7568 66.2801C85.0781 66.2801 86.0422 66.2801 91.3675 63.0401C93.6275 64.6148 96.4502 66.3694 97.8035 66.3694H97.8061C98.4168 66.3668 98.8048 66.1068 99.0221 65.8894C99.4595 65.4521 100.266 64.6481 98.3395 58.0054C102.903 54.2881 103.53 53.0215 103.53 52.2748Z" fill="#C7901A"/>
<path d="M91.4276 46.7909C90.9022 46.7909 89.7209 50.3602 89.2222 51.7722C87.5596 52.1882 83.5116 51.8962 83.1662 52.6456C82.8116 53.4149 87.7062 54.9576 90.1982 55.1389C94.5262 55.4536 99.8622 53.8469 99.7462 52.7575C99.6889 52.2215 94.9342 52.1495 93.6462 51.8962C93.0222 49.7389 92.1756 46.7909 91.4276 46.7909Z" fill="white"/>
<path d="M54.5147 165.528L54.5954 165.727C48.7699 168.153 42.9834 169.567 38.0615 169.981C40.7282 162.315 47.9547 153.648 50.2881 151.648L51.3167 151.195C53.0615 155.088 54.223 159.833 54.5147 165.528Z" fill="#FDEAB3"/>
<path d="M51.3171 151.195L50.2884 151.648C41.2884 157.981 34.6217 160.195 26.9551 161.528C29.2884 155.315 34.5151 146.981 42.2884 141.421L42.9551 140.475C46.2624 142.953 49.2233 146.447 51.3171 151.195Z" fill="#FDEAB3"/>
<path d="M30.6893 135.688C34.7283 136.1 39.0747 137.595 42.9549 140.475L42.2882 141.421C32.9549 146.755 25.4081 149.315 19.395 151.981C21.2622 145.727 24.4627 140.141 30.6893 135.688Z" fill="#FDEAB3"/>
<path d="M72.7285 134.968C77.4499 140.862 77.6348 151.82 65.3952 159.982C61.9291 162.302 58.2493 164.207 54.5957 165.727L54.5151 165.528C54.2233 159.834 53.0619 155.088 51.3171 151.195C49.2233 146.447 46.2624 142.954 42.9551 140.475C39.0749 137.595 34.7285 136.1 30.6895 135.688C33.7832 133.475 37.6088 131.554 42.3952 129.968C53.5151 126.302 67.3952 128.302 72.7285 134.968Z" fill="#CD5C29"/>
<path d="M73.559 145.676C73.0511 148.962 71.0277 153.819 64.2933 158.311C61.585 160.115 58.6657 161.715 55.6605 163.082C54.0017 146.24 44.585 137.882 35.2361 135.22C37.4574 133.992 40.0303 132.863 43.0277 131.874C46.4262 130.751 50.2282 130.158 54.0199 130.158C61.6085 130.158 68.1814 132.483 71.1735 136.222C73.2257 138.787 74.0954 142.232 73.559 145.676ZM50.9235 153.796C52.0017 156.796 52.7413 160.254 53.059 164.202C49.1162 165.783 45.085 166.939 41.2386 167.567C44.0511 161.726 48.7673 155.975 50.9235 153.796ZM30.3246 158.818C32.9287 153.56 37.3637 147.398 43.4547 143.046L43.7178 142.766C45.835 144.646 47.7257 147.02 49.2595 149.947L49.1397 150.006C41.8038 155.168 36.2022 157.458 30.3246 158.818ZM23.8063 147.95C23.4809 148.083 23.1605 148.214 22.8429 148.346C24.5069 144.575 27.1943 140.635 32.0329 137.218C34.8323 137.675 37.6501 138.664 40.2829 140.246C34.0043 143.748 28.5954 145.982 23.8063 147.95ZM54.0199 126.158C49.8063 126.158 45.5719 126.82 41.7751 128.074C28.473 132.464 20.9809 139.659 17.4861 151.404C17.2621 152.151 17.4965 152.962 18.0823 153.478C18.6683 153.991 19.5017 154.119 20.2153 153.803C21.8063 153.095 23.5095 152.395 25.3246 151.65C27.3793 150.806 29.5381 149.918 31.835 148.904C28.6735 153.028 26.4053 157.316 25.0877 160.826C24.835 161.498 24.9626 162.254 25.4183 162.806C25.8766 163.358 26.5902 163.63 27.3011 163.499C32.0563 162.672 36.5694 161.494 41.5642 159.132C39.4183 162.295 37.3714 165.888 36.1787 169.318C35.9574 169.956 36.0746 170.664 36.4886 171.2C36.8689 171.691 37.4547 171.975 38.0694 171.975L38.2361 171.968C47.3819 171.206 57.9522 167.344 66.5121 161.639C74.4574 156.342 76.8793 150.368 77.5121 146.29C78.2179 141.742 77.0459 137.16 74.2959 133.723C70.5069 128.986 62.9262 126.158 54.0199 126.158Z" fill="#100F0D"/>
<path d="M179.382 129.968C184.169 131.553 188.01 133.475 191.103 135.688C187.062 136.088 182.702 137.581 178.822 140.487C175.514 142.968 172.557 146.461 170.475 151.207C168.729 155.1 167.582 159.834 167.275 165.528L167.194 165.742C163.527 164.22 159.847 162.301 156.382 159.981C144.155 151.82 144.343 140.861 149.049 134.968C154.382 128.301 168.275 126.301 179.382 129.968Z" fill="#CD5C29"/>
<path d="M171.489 151.648C173.822 153.648 181.049 162.315 183.716 169.981C178.809 169.567 173.022 168.153 167.194 165.741L167.276 165.528C167.582 159.833 168.729 155.1 170.476 151.207L171.489 151.648Z" fill="#FDEAB3"/>
<path d="M179.489 141.421C187.262 146.981 192.489 155.315 194.822 161.528C187.156 160.195 180.489 157.981 171.489 151.648L170.476 151.207C172.557 146.461 175.514 142.968 178.822 140.487L179.489 141.421Z" fill="#FDEAB3"/>
<path d="M191.104 135.688C197.33 140.141 200.528 145.727 202.382 151.981C196.382 149.315 188.822 146.755 179.489 141.421L178.822 140.487C182.702 137.581 187.062 136.088 191.104 135.688Z" fill="#FDEAB3"/>
<path d="M197.978 147.949C193.186 145.981 187.778 143.748 181.502 140.245C184.134 138.664 186.95 137.675 189.749 137.217C194.588 140.635 197.276 144.575 198.942 148.345C198.624 148.213 198.304 148.083 197.978 147.949ZM191.457 158.817C185.582 157.457 179.981 155.168 172.642 150.005L172.522 149.951C174.054 147.021 175.95 144.647 178.065 142.765L178.33 143.045C184.421 147.397 188.853 153.56 191.457 158.817ZM180.546 167.567C176.697 166.939 172.669 165.783 168.726 164.201C169.044 160.253 169.784 156.796 170.858 153.796C173.017 155.975 177.734 161.725 180.546 167.567ZM148.224 145.676C147.689 142.232 148.56 138.787 150.609 136.223C153.604 132.483 160.177 130.157 167.765 130.157C171.557 130.157 175.356 130.751 178.754 131.873C181.754 132.863 184.325 133.992 186.549 135.22C177.2 137.881 167.784 146.24 166.122 163.081C163.12 161.715 160.197 160.115 157.492 158.311C150.754 153.819 148.734 148.961 148.224 145.676ZM204.205 151.096C200.672 139.533 193.194 132.427 180.008 128.073C176.21 126.82 171.976 126.157 167.765 126.157C158.856 126.157 151.276 128.985 147.486 133.723C144.736 137.16 143.565 141.741 144.27 146.289C144.902 150.368 147.328 156.341 155.273 161.639C163.83 167.344 174.401 171.205 183.549 171.968L183.716 171.975H183.726C184.825 172.008 185.741 171.084 185.741 169.975C185.741 169.627 185.653 169.299 185.497 169.013C184.29 165.676 182.301 162.201 180.221 159.132C185.216 161.493 189.729 162.672 194.481 163.499C195.194 163.629 195.905 163.357 196.364 162.805C196.822 162.253 196.95 161.497 196.697 160.825C195.38 157.316 193.112 153.028 189.948 148.904C192.244 149.917 194.405 150.805 196.457 151.649C198.276 152.395 199.978 153.095 201.569 153.803C201.83 153.919 202.106 153.975 202.382 153.975H202.408C203.513 153.975 204.408 153.079 204.408 151.975C204.408 151.659 204.336 151.361 204.205 151.096Z" fill="#100F0D"/>
</svg>
